<svg id="svg" version="1.1" xmlns="http://www.w3.org/2000/svg" xmlns:xlink="http://www.w3.org/1999/xlink" width="400" height="406.10873549175324" viewBox="0, 0, 400,406.10873549175324"><g id="svgg"><path id="path0" d="M200.122 12.079 C 199.000 12.821,194.550 15.423,191.326 17.222 C 189.914 18.009,188.320 18.918,187.783 19.241 C 185.565 20.575,183.747 21.620,181.552 22.825 C 180.275 23.525,176.921 25.450,174.099 27.102 C 163.637 33.225,162.565 33.835,160.274 34.972 C 158.986 35.611,156.529 36.966,154.812 37.982 C 153.096 38.998,151.651 39.829,151.601 39.829 C 151.551 39.829,149.501 40.997,147.044 42.424 C 144.588 43.851,141.038 45.901,139.157 46.980 C 137.276 48.059,135.461 49.116,135.125 49.329 C 134.789 49.542,134.294 49.836,134.026 49.983 C 133.236 50.413,132.800 50.666,127.732 53.625 C 125.077 55.176,122.843 56.445,122.767 56.445 C 122.691 56.445,122.150 56.775,121.564 57.178 C 120.978 57.581,120.439 57.911,120.367 57.911 C 120.295 57.911,118.391 58.992,116.135 60.313 C 113.880 61.635,110.055 63.854,107.636 65.246 C 105.217 66.637,101.698 68.671,99.817 69.765 C 97.935 70.858,95.296 72.380,93.952 73.146 C 92.608 73.912,91.344 74.642,91.142 74.768 C 89.918 75.532,81.260 80.564,79.658 81.443 C 78.919 81.848,77.269 82.803,75.993 83.564 C 74.716 84.326,73.012 85.317,72.205 85.768 C 69.824 87.098,61.964 91.667,61.698 91.874 C 61.564 91.980,60.574 92.554,59.499 93.152 C 58.424 93.749,56.445 94.880,55.101 95.665 C 52.142 97.392,50.055 98.594,48.748 99.324 C 48.210 99.624,46.506 100.617,44.960 101.530 C 40.894 103.934,39.383 104.813,37.919 105.625 C 37.167 106.042,36.524 106.599,36.392 106.946 C 35.889 108.268,36.106 297.001,36.611 297.458 C 36.856 297.680,37.142 297.862,37.245 297.862 C 37.348 297.862,37.724 298.065,38.081 298.313 C 38.438 298.562,39.334 299.097,40.073 299.504 C 40.812 299.911,42.957 301.151,44.838 302.261 C 46.720 303.371,49.084 304.742,50.092 305.308 C 51.100 305.873,53.168 307.069,54.688 307.964 C 56.208 308.859,57.912 309.853,58.475 310.172 C 59.038 310.491,60.214 311.168,61.087 311.677 C 61.961 312.185,64.199 313.463,66.060 314.517 C 69.683 316.567,74.940 319.607,81.903 323.677 C 84.279 325.067,88.073 327.259,90.333 328.549 C 92.592 329.839,94.551 330.981,94.685 331.088 C 94.820 331.194,99.053 333.643,104.093 336.529 C 109.133 339.415,114.507 342.506,116.037 343.399 C 117.566 344.291,118.852 345.021,118.896 345.021 C 118.939 345.021,120.986 346.217,123.446 347.677 C 125.905 349.138,128.581 350.705,129.393 351.159 C 134.792 354.181,143.019 358.899,144.044 359.560 C 144.716 359.994,145.651 360.546,146.121 360.786 C 146.591 361.025,148.626 362.182,150.641 363.356 C 152.657 364.530,157.276 367.221,160.904 369.336 C 170.042 374.661,169.484 374.340,174.465 377.148 C 178.174 379.239,180.703 380.704,185.217 383.378 C 185.418 383.497,187.288 384.578,189.371 385.780 C 191.454 386.982,195.076 389.085,197.421 390.454 L 201.684 392.942 203.285 392.218 C 204.166 391.820,205.162 391.416,205.498 391.321 C 205.834 391.225,206.337 390.939,206.616 390.684 C 206.894 390.430,207.719 389.854,208.448 389.406 C 209.177 388.958,210.984 387.842,212.462 386.926 C 215.096 385.295,220.868 381.918,221.022 381.918 C 221.065 381.918,221.996 381.368,223.091 380.696 C 224.186 380.024,225.134 379.475,225.198 379.475 C 225.261 379.475,225.915 379.090,226.651 378.619 C 227.386 378.149,228.040 377.764,228.105 377.764 C 228.170 377.764,229.680 376.902,231.460 375.848 C 235.197 373.636,238.720 371.655,238.920 371.655 C 238.995 371.655,239.231 371.503,239.443 371.317 C 239.655 371.131,241.533 370.014,243.616 368.835 C 245.699 367.656,252.242 363.883,258.155 360.451 C 264.068 357.018,269.841 353.698,270.984 353.071 C 272.126 352.445,273.610 351.628,274.282 351.256 C 276.094 350.254,279.864 348.048,282.224 346.611 C 285.421 344.663,288.584 342.797,289.798 342.142 C 290.763 341.622,293.988 339.764,302.505 334.818 C 303.781 334.077,305.101 333.295,305.437 333.080 C 305.773 332.866,306.457 332.469,306.958 332.197 C 308.672 331.269,316.308 326.869,320.916 324.155 C 323.450 322.663,325.869 321.240,326.292 320.994 C 327.088 320.532,331.667 317.803,332.315 317.406 C 332.517 317.282,334.881 315.903,337.569 314.342 C 340.257 312.781,343.060 311.143,343.800 310.702 C 344.539 310.261,345.638 309.627,346.243 309.292 C 347.492 308.602,357.459 302.864,360.782 300.923 C 361.991 300.216,363.751 299.206,364.692 298.678 L 366.402 297.717 366.402 202.225 L 366.402 106.733 365.302 106.118 C 364.698 105.780,362.663 104.598,360.782 103.492 C 358.900 102.385,354.887 100.074,351.863 98.355 C 348.839 96.637,345.211 94.546,343.800 93.709 C 341.401 92.287,332.665 87.231,330.483 86.003 C 329.945 85.701,329.175 85.255,328.772 85.012 C 328.369 84.770,327.104 84.044,325.962 83.401 C 323.657 82.102,323.720 82.138,321.392 80.730 C 320.479 80.177,319.071 79.368,318.265 78.932 C 317.459 78.496,316.414 77.890,315.944 77.585 C 315.473 77.280,312.505 75.574,309.346 73.795 C 306.188 72.015,303.306 70.353,302.942 70.100 C 302.578 69.847,302.234 69.640,302.177 69.640 C 302.120 69.640,300.549 68.750,298.685 67.662 C 296.821 66.575,294.856 65.436,294.319 65.131 C 293.781 64.827,292.957 64.357,292.486 64.089 C 291.093 63.292,282.653 58.361,281.857 57.879 C 281.454 57.635,280.684 57.199,280.147 56.911 C 279.609 56.622,277.135 55.208,274.649 53.767 C 272.162 52.326,267.434 49.600,264.142 47.708 C 257.367 43.817,257.144 43.688,255.184 42.526 C 254.399 42.061,253.537 41.558,253.268 41.410 C 252.999 41.261,251.570 40.439,250.092 39.582 C 248.613 38.725,246.689 37.623,245.816 37.134 C 244.942 36.644,242.963 35.498,241.417 34.587 C 239.872 33.676,237.892 32.543,237.019 32.069 C 236.145 31.595,235.257 31.058,235.045 30.876 C 234.833 30.693,234.589 30.544,234.504 30.544 C 234.418 30.544,233.162 29.847,231.713 28.996 C 227.554 26.554,218.227 21.167,216.628 20.282 C 215.828 19.840,213.707 18.614,211.914 17.558 C 210.122 16.502,208.602 15.638,208.538 15.638 C 208.473 15.638,207.955 15.339,207.387 14.973 C 206.818 14.607,206.133 14.187,205.864 14.041 C 203.550 12.784,202.059 11.897,201.943 11.709 C 201.714 11.340,201.030 11.479,200.122 12.079 M203.728 38.473 C 204.696 38.937,206.122 39.748,206.898 40.275 C 207.673 40.802,210.837 42.666,213.928 44.416 C 217.019 46.166,222.407 49.241,225.901 51.250 C 229.395 53.259,232.749 55.183,233.354 55.527 C 233.958 55.870,235.828 56.947,237.508 57.920 C 239.188 58.893,240.892 59.879,241.295 60.110 C 241.698 60.341,243.387 61.315,245.047 62.275 C 246.708 63.234,248.108 64.020,248.158 64.020 C 248.208 64.020,248.851 64.404,249.586 64.875 C 250.322 65.345,250.979 65.730,251.047 65.730 C 251.115 65.730,253.060 66.830,255.369 68.173 C 257.679 69.517,259.602 70.617,259.644 70.617 C 259.686 70.617,261.237 71.510,263.091 72.601 C 264.946 73.693,266.958 74.866,267.563 75.207 C 268.689 75.844,273.951 78.875,276.359 80.273 C 277.098 80.703,279.462 82.070,281.613 83.311 C 283.763 84.552,285.852 85.761,286.255 85.998 C 286.659 86.234,289.023 87.585,291.509 89.000 C 293.995 90.415,298.613 93.083,301.772 94.928 C 304.930 96.773,308.009 98.558,308.613 98.896 C 310.307 99.840,317.325 103.902,318.339 104.526 C 318.836 104.831,319.407 105.154,319.609 105.244 C 319.811 105.334,321.445 106.266,323.240 107.316 C 325.035 108.365,326.545 109.224,326.595 109.224 C 326.645 109.224,327.265 109.594,327.973 110.046 C 328.681 110.499,329.811 111.159,330.483 111.513 C 331.155 111.867,334.508 113.786,337.935 115.776 L 344.166 119.395 344.331 120.479 C 344.422 121.076,344.505 158.641,344.515 203.958 L 344.533 286.353 343.715 286.976 C 343.266 287.319,342.840 287.599,342.769 287.599 C 342.651 287.599,339.807 289.198,336.469 291.140 C 335.730 291.570,334.026 292.559,332.682 293.337 C 331.338 294.116,328.699 295.659,326.817 296.766 C 324.936 297.873,322.517 299.248,321.442 299.823 C 320.367 300.398,318.552 301.440,317.410 302.139 C 315.289 303.437,312.628 304.975,307.636 307.789 C 306.090 308.661,304.441 309.677,303.971 310.049 C 303.500 310.421,302.181 311.252,301.038 311.897 C 297.967 313.631,297.501 313.902,296.417 314.587 C 295.873 314.930,295.360 315.211,295.278 315.211 C 295.195 315.211,294.835 315.415,294.479 315.665 C 293.872 316.089,293.303 316.418,290.348 318.052 C 289.710 318.405,288.583 319.053,287.844 319.493 C 287.104 319.933,286.115 320.509,285.644 320.773 C 285.174 321.037,283.546 321.983,282.026 322.875 C 280.507 323.766,279.209 324.496,279.143 324.496 C 279.077 324.496,278.422 324.881,277.687 325.351 C 276.951 325.822,276.299 326.206,276.237 326.206 C 276.175 326.206,275.523 326.591,274.787 327.062 C 274.052 327.532,273.403 327.917,273.346 327.917 C 273.288 327.917,270.690 329.401,267.572 331.216 C 264.453 333.030,261.873 334.514,261.837 334.514 C 261.801 334.514,260.768 335.119,259.542 335.858 C 258.316 336.597,257.245 337.202,257.161 337.202 C 257.077 337.202,256.717 337.406,256.360 337.656 C 256.004 337.906,255.217 338.386,254.612 338.724 C 251.758 340.318,247.938 342.515,242.437 345.726 C 240.108 347.086,238.154 348.198,238.094 348.198 C 238.034 348.198,237.300 348.621,236.463 349.138 C 235.627 349.655,230.104 352.865,224.191 356.271 C 218.277 359.678,210.538 364.148,206.992 366.205 C 203.446 368.262,200.415 369.945,200.257 369.945 C 199.950 369.945,198.512 369.241,197.312 368.502 C 196.909 368.254,194.820 367.036,192.670 365.796 C 185.151 361.458,181.182 359.163,180.819 358.942 C 180.617 358.819,179.957 358.454,179.352 358.129 C 178.748 357.805,177.263 356.922,176.054 356.166 C 174.844 355.410,173.690 354.719,173.488 354.631 C 173.286 354.543,171.875 353.747,170.351 352.861 C 168.828 351.976,166.929 350.899,166.131 350.466 C 165.334 350.034,164.216 349.362,163.648 348.973 C 163.080 348.583,161.625 347.738,160.415 347.093 C 159.206 346.448,157.172 345.264,155.895 344.462 C 154.618 343.659,152.089 342.177,150.275 341.169 C 145.835 338.702,145.265 338.381,144.306 337.813 C 140.677 335.663,138.906 334.651,138.164 334.307 C 137.886 334.178,136.265 333.237,134.561 332.216 C 132.857 331.196,131.404 330.360,131.331 330.360 C 131.259 330.360,130.131 329.718,128.825 328.934 C 125.206 326.759,122.253 325.059,118.879 323.208 C 117.672 322.546,116.407 321.809,116.069 321.571 C 115.244 320.991,110.809 318.424,109.598 317.825 C 109.064 317.562,107.690 316.769,106.543 316.064 C 105.397 315.359,102.645 313.763,100.428 312.517 C 98.210 311.271,95.967 309.981,95.444 309.651 C 94.153 308.837,89.949 306.414,89.827 306.414 C 89.718 306.414,83.729 302.919,82.224 301.977 C 81.686 301.640,80.641 301.035,79.902 300.632 C 77.504 299.324,72.933 296.707,71.262 295.684 C 70.365 295.135,69.584 294.685,69.526 294.685 C 69.469 294.685,67.464 293.543,65.071 292.147 C 62.679 290.750,59.566 288.948,58.155 288.142 L 55.589 286.676 55.523 203.509 C 55.486 157.767,55.512 120.108,55.581 119.821 C 55.664 119.477,56.473 118.864,57.969 118.013 C 59.214 117.304,60.589 116.522,61.026 116.273 C 62.575 115.393,63.430 114.894,65.241 113.817 C 66.249 113.218,67.596 112.434,68.235 112.075 C 68.873 111.717,69.918 111.130,70.556 110.771 C 71.194 110.413,72.523 109.643,73.508 109.061 C 74.494 108.479,75.344 108.002,75.397 108.002 C 75.451 108.002,76.074 107.635,76.782 107.186 C 77.490 106.736,78.949 105.897,80.024 105.320 C 81.100 104.743,82.144 104.148,82.346 103.999 C 82.711 103.728,82.954 103.585,84.939 102.477 C 85.512 102.156,87.225 101.165,88.745 100.273 C 90.265 99.380,91.970 98.391,92.533 98.073 C 93.096 97.756,94.779 96.781,96.273 95.908 C 97.767 95.034,99.027 94.319,99.073 94.319 C 99.119 94.319,99.909 93.861,100.830 93.300 C 102.925 92.026,110.450 87.721,110.583 87.721 C 110.637 87.721,111.282 87.337,112.018 86.866 C 112.753 86.396,113.413 86.011,113.484 86.011 C 113.555 86.011,114.192 85.644,114.901 85.195 C 115.609 84.746,116.793 84.048,117.532 83.643 C 118.271 83.238,120.235 82.121,121.895 81.160 C 123.556 80.199,124.977 79.414,125.053 79.414 C 125.129 79.414,125.364 79.264,125.576 79.081 C 125.789 78.899,126.567 78.420,127.306 78.019 C 128.045 77.617,129.511 76.777,130.564 76.152 C 131.617 75.527,132.534 75.015,132.603 75.015 C 132.672 75.015,133.020 74.811,133.377 74.562 C 133.734 74.312,134.520 73.831,135.125 73.492 C 135.730 73.153,136.940 72.464,137.813 71.961 C 138.687 71.457,139.896 70.770,140.501 70.433 C 141.106 70.097,142.480 69.300,143.555 68.662 C 144.630 68.025,146.005 67.230,146.610 66.896 C 148.530 65.834,149.571 65.240,153.574 62.921 C 155.724 61.676,158.033 60.353,158.705 59.982 C 159.377 59.611,161.191 58.568,162.737 57.664 C 165.194 56.226,175.995 50.017,185.534 44.559 C 189.151 42.489,191.783 41.136,193.124 40.657 C 193.643 40.472,194.727 39.920,195.532 39.430 C 198.944 37.358,200.920 37.127,203.728 38.473 M200.122 53.913 C 199.786 53.962,198.687 54.120,197.679 54.264 C 192.142 55.055,187.213 57.289,182.285 61.242 C 170.050 71.055,162.291 91.661,163.941 109.957 C 164.286 113.785,165.340 121.472,165.665 122.541 C 165.788 122.944,166.071 124.209,166.293 125.351 C 167.247 130.246,168.279 133.860,171.564 143.800 C 173.432 149.452,174.276 151.823,174.978 153.388 C 175.234 153.957,175.443 154.481,175.443 154.552 C 175.443 154.693,177.700 160.188,178.267 161.430 C 178.461 161.853,178.619 162.269,178.619 162.354 C 178.619 162.439,179.833 165.171,181.317 168.426 C 182.800 171.680,184.113 174.563,184.233 174.832 C 184.353 175.101,185.462 177.410,186.698 179.963 C 187.934 182.517,189.302 185.376,189.738 186.316 C 190.175 187.257,191.109 189.236,191.813 190.715 C 196.225 199.975,196.305 200.401,193.929 201.928 C 191.461 203.515,191.291 203.860,192.001 205.840 C 192.671 207.706,193.114 207.912,196.869 208.099 C 198.641 208.187,200.201 208.328,200.336 208.411 C 200.730 208.655,212.434 232.678,213.188 234.791 C 213.362 235.277,213.830 236.390,214.229 237.263 C 214.629 238.137,215.366 239.786,215.868 240.929 C 216.370 242.071,216.927 243.335,217.106 243.739 C 217.546 244.728,220.464 252.116,221.256 254.246 C 221.606 255.186,222.282 257.001,222.757 258.277 C 225.259 264.999,228.177 276.406,229.303 283.874 C 232.355 304.102,230.227 316.875,221.005 333.665 C 219.510 336.387,219.243 336.353,207.453 331.956 C 205.773 331.329,203.134 330.372,201.588 329.828 C 197.964 328.552,198.168 329.033,199.352 324.565 C 201.742 315.545,198.637 307.229,191.448 303.397 C 179.494 297.025,166.180 302.796,162.218 316.066 C 159.406 325.482,166.855 338.431,178.242 343.924 C 198.753 353.817,223.835 350.352,237.596 335.725 C 239.435 333.770,243.372 328.584,243.372 328.116 C 243.372 327.989,243.643 327.529,243.974 327.095 C 245.051 325.683,248.429 318.071,249.827 313.904 C 250.632 311.505,252.208 304.936,252.650 302.138 C 252.799 301.197,253.023 299.823,253.149 299.084 C 254.525 290.980,254.526 276.464,253.151 267.929 C 251.517 257.784,250.209 252.550,247.166 243.983 C 246.402 241.833,245.465 239.194,245.083 238.119 C 244.048 235.208,242.287 231.121,239.732 225.699 C 239.046 224.244,238.485 223.002,238.485 222.938 C 238.485 222.706,232.460 210.636,230.616 207.176 C 228.202 202.645,228.188 202.111,230.441 200.574 C 232.115 199.431,232.296 198.993,231.807 197.273 C 231.263 195.362,231.138 195.281,228.467 195.112 C 224.771 194.879,224.757 194.875,223.796 193.584 C 221.204 190.102,213.183 175.247,209.779 167.624 C 209.389 166.750,208.224 164.276,207.190 162.126 C 206.156 159.976,205.012 157.507,204.647 156.641 C 204.283 155.774,203.501 154.036,202.909 152.778 C 202.317 151.519,201.833 150.455,201.833 150.412 C 201.833 150.369,201.295 149.194,200.637 147.800 C 199.980 146.406,198.933 144.090,198.310 142.652 C 197.688 141.215,196.864 139.401,196.479 138.621 C 194.751 135.116,188.789 122.255,187.790 119.875 C 185.559 114.565,184.421 111.244,183.849 108.373 C 182.312 100.659,182.222 87.999,183.662 81.979 C 184.591 78.091,188.808 69.763,190.259 68.952 C 190.640 68.738,198.912 70.724,203.382 72.102 L 205.786 72.844 205.581 75.212 C 204.500 87.736,214.347 95.504,225.867 91.215 C 242.343 85.080,237.416 62.316,218.302 56.259 C 215.852 55.483,215.194 55.303,212.340 54.625 C 209.163 53.871,202.896 53.506,200.122 53.913 M332.071 323.118 C 331.332 323.559,329.847 324.398,328.772 324.982 C 327.697 325.565,325.718 326.720,324.374 327.548 C 323.030 328.376,321.106 329.498,320.098 330.041 C 319.090 330.584,317.001 331.777,315.455 332.693 C 313.910 333.609,311.847 334.806,310.873 335.353 C 309.898 335.900,307.094 337.537,304.642 338.991 C 302.190 340.445,299.633 341.916,298.962 342.260 C 298.290 342.604,296.145 343.844,294.197 345.017 C 292.248 346.189,289.774 347.624,288.699 348.206 C 287.624 348.788,285.535 349.997,284.056 350.894 C 282.578 351.790,280.654 352.909,279.780 353.381 C 278.907 353.852,276.244 355.380,273.864 356.777 C 271.483 358.173,268.734 359.766,267.755 360.316 C 265.741 361.448,260.266 364.638,254.524 368.025 C 252.392 369.283,249.973 370.676,249.148 371.121 C 247.034 372.263,244.442 373.780,242.982 374.730 C 242.297 375.176,240.813 376.021,239.683 376.608 C 238.554 377.194,237.190 377.955,236.652 378.298 C 234.458 379.698,228.972 382.896,228.764 382.896 C 228.642 382.896,227.617 383.475,226.488 384.184 C 225.359 384.893,223.005 386.282,221.258 387.270 C 219.511 388.259,216.378 390.083,214.294 391.324 C 212.211 392.565,209.902 393.907,209.163 394.307 C 206.369 395.820,205.009 396.631,205.009 396.786 C 205.009 397.320,213.468 396.415,214.473 395.773 C 215.041 395.410,215.571 395.113,215.650 395.113 C 215.729 395.113,216.143 394.847,216.571 394.521 C 216.999 394.196,217.673 393.848,218.069 393.750 C 218.465 393.651,219.047 393.263,219.363 392.888 C 219.678 392.514,220.179 392.132,220.475 392.040 C 220.771 391.948,221.340 391.639,221.738 391.355 C 222.136 391.070,222.798 390.672,223.209 390.470 C 223.621 390.269,224.683 389.582,225.571 388.943 C 226.459 388.305,227.327 387.783,227.501 387.783 C 227.675 387.783,228.019 387.600,228.266 387.377 C 228.513 387.153,228.961 386.835,229.263 386.669 C 230.010 386.259,232.658 384.939,233.109 384.752 C 233.311 384.669,233.806 384.383,234.209 384.117 C 234.612 383.851,235.107 383.561,235.308 383.472 C 235.510 383.383,235.840 383.173,236.042 383.005 C 236.745 382.421,238.259 381.674,238.740 381.674 C 239.303 381.674,239.963 381.330,241.208 380.391 C 241.698 380.021,242.171 379.719,242.259 379.719 C 242.348 379.719,242.825 379.444,243.320 379.108 C 243.814 378.772,244.399 378.497,244.621 378.497 C 244.842 378.497,245.149 378.345,245.303 378.159 C 245.688 377.695,250.071 375.565,250.640 375.565 C 250.767 375.565,251.068 375.348,251.308 375.083 C 251.548 374.817,251.977 374.527,252.262 374.437 C 252.547 374.347,253.120 374.014,253.536 373.697 C 253.951 373.381,254.377 373.122,254.480 373.122 C 254.584 373.122,255.182 372.745,255.809 372.284 C 256.437 371.824,257.250 371.372,257.616 371.280 C 257.982 371.188,258.342 371.015,258.416 370.895 C 258.490 370.776,258.753 370.678,259.000 370.678 C 259.248 370.678,259.983 370.320,260.635 369.882 C 261.287 369.444,262.480 368.761,263.286 368.364 C 264.093 367.966,265.137 367.355,265.608 367.005 C 266.078 366.655,266.848 366.177,267.318 365.942 C 267.789 365.707,268.723 365.202,269.395 364.820 C 270.067 364.438,270.845 364.115,271.124 364.103 C 271.403 364.091,271.890 363.806,272.205 363.470 C 272.521 363.134,272.877 362.859,272.997 362.859 C 273.117 362.859,273.565 362.596,273.993 362.274 C 274.421 361.953,275.156 361.485,275.627 361.236 C 276.098 360.986,276.830 360.535,277.253 360.232 C 277.677 359.930,278.185 359.682,278.383 359.682 C 278.581 359.682,278.871 359.528,279.027 359.340 C 279.184 359.151,279.597 358.926,279.946 358.838 C 280.295 358.751,280.933 358.410,281.364 358.081 C 281.795 357.752,282.350 357.483,282.597 357.483 C 282.845 357.483,283.298 357.248,283.604 356.961 C 284.193 356.407,284.815 356.019,286.011 355.459 C 286.414 355.270,286.895 354.933,287.079 354.711 C 287.264 354.489,287.541 354.307,287.695 354.307 C 287.849 354.307,288.379 354.032,288.874 353.696 C 289.368 353.360,289.896 353.085,290.046 353.085 C 290.197 353.085,290.680 352.810,291.121 352.474 C 291.561 352.138,292.121 351.863,292.364 351.863 C 292.607 351.863,293.167 351.588,293.608 351.252 C 294.048 350.916,294.507 350.641,294.627 350.641 C 294.746 350.641,295.097 350.372,295.407 350.043 C 295.716 349.714,296.277 349.377,296.654 349.294 C 297.031 349.212,297.485 348.969,297.662 348.755 C 297.839 348.541,298.314 348.217,298.717 348.034 C 299.120 347.851,299.615 347.612,299.817 347.502 C 300.018 347.393,300.568 347.103,301.038 346.859 C 305.506 344.543,305.527 344.531,307.180 343.372 C 307.803 342.935,308.387 342.578,308.479 342.578 C 308.571 342.578,309.006 342.303,309.447 341.967 C 309.887 341.631,310.371 341.356,310.523 341.356 C 310.842 341.356,312.272 340.576,313.358 339.809 C 314.500 339.004,315.017 338.692,315.841 338.311 C 316.255 338.120,316.736 337.792,316.909 337.583 C 317.083 337.373,317.360 337.202,317.525 337.202 C 317.690 337.202,318.276 336.876,318.826 336.477 C 319.377 336.078,320.104 335.683,320.441 335.598 C 320.779 335.513,321.183 335.290,321.339 335.101 C 321.496 334.913,321.737 334.759,321.876 334.759 C 322.015 334.759,322.469 334.503,322.885 334.191 C 323.301 333.879,323.806 333.548,324.007 333.455 C 324.209 333.363,324.704 333.070,325.107 332.805 C 325.510 332.540,326.060 332.213,326.329 332.079 C 326.597 331.945,327.257 331.563,327.795 331.230 C 328.332 330.897,329.102 330.451,329.505 330.240 C 330.876 329.521,331.129 329.213,332.203 326.961 C 332.816 325.675,333.342 324.343,333.778 322.969 C 334.060 322.083,333.761 322.109,332.071 323.118 M70.617 322.891 C 70.617 322.949,71.419 323.382,72.399 323.853 C 73.379 324.325,74.914 325.212,75.809 325.825 C 76.705 326.438,77.543 326.940,77.672 326.940 C 77.801 326.940,77.943 327.026,77.988 327.132 C 78.124 327.453,79.658 328.454,79.658 328.222 C 79.658 327.892,74.916 324.756,72.835 323.711 C 71.075 322.827,70.617 322.658,70.617 322.891 M80.791 329.016 C 80.869 329.218,81.076 329.383,81.252 329.383 C 81.428 329.383,81.627 329.520,81.695 329.688 C 81.774 329.884,81.825 329.894,81.838 329.717 C 81.848 329.564,81.585 329.261,81.254 329.044 C 80.740 328.707,80.671 328.703,80.791 329.016 M99.206 339.768 C 99.561 340.196,102.163 341.636,102.413 341.543 C 102.510 341.507,101.761 341.013,100.749 340.444 C 99.737 339.875,99.043 339.571,99.206 339.768 M102.871 341.827 C 102.871 341.939,103.228 342.176,103.665 342.355 C 104.102 342.534,105.064 343.026,105.803 343.449 C 109.527 345.579,111.694 346.732,111.971 346.730 C 112.140 346.730,111.344 346.200,110.202 345.552 C 104.298 342.207,102.871 341.482,102.871 341.827 M183.905 388.899 C 184.358 389.379,184.728 389.886,184.728 390.025 C 184.728 390.164,185.058 390.694,185.461 391.203 C 185.864 391.712,186.194 392.247,186.194 392.391 C 186.194 392.938,188.498 394.869,189.150 394.869 C 189.504 394.869,190.073 395.089,190.415 395.357 C 190.757 395.626,191.120 395.846,191.223 395.846 C 191.325 395.846,191.583 396.001,191.795 396.191 C 192.073 396.440,193.204 396.578,195.846 396.684 C 198.200 396.778,199.336 396.749,199.023 396.601 C 198.754 396.475,197.412 395.944,196.040 395.420 C 193.778 394.555,188.491 391.464,186.457 389.817 C 185.774 389.264,183.564 388.027,183.258 388.027 C 183.161 388.027,183.453 388.420,183.905 388.899 " stroke="none" fill="#050505" fill-rule="evenodd"></path><path id="path1" d="M198.656 7.173 C 197.731 7.509,193.613 9.960,191.127 11.655 C 190.278 12.233,189.449 12.706,189.283 12.706 C 189.117 12.706,188.217 13.209,187.282 13.823 C 185.834 14.775,181.248 17.643,180.086 18.324 C 178.526 19.238,174.050 21.951,172.758 22.767 C 170.188 24.389,168.384 25.269,165.838 26.144 C 163.690 26.883,163.374 27.069,162.781 27.953 C 162.250 28.742,161.804 29.055,160.534 29.528 C 156.364 31.083,153.030 32.688,150.934 34.149 C 149.698 35.011,148.467 35.804,148.198 35.912 C 147.929 36.019,145.833 37.364,143.540 38.901 C 139.241 41.782,136.559 43.254,130.529 46.040 C 128.547 46.957,125.916 48.422,124.453 49.424 C 123.035 50.396,121.144 51.675,120.253 52.266 C 119.361 52.858,117.532 54.081,116.188 54.984 C 114.435 56.163,112.758 57.016,110.251 58.006 C 108.329 58.764,106.393 59.631,105.948 59.931 C 105.503 60.231,103.787 61.411,102.133 62.553 C 100.480 63.696,98.709 64.867,98.198 65.155 C 97.687 65.444,96.248 66.378,95.000 67.232 C 92.747 68.774,92.227 69.039,86.147 71.756 C 83.576 72.906,82.648 73.468,81.183 74.765 C 80.192 75.642,78.475 76.862,77.367 77.477 C 74.837 78.882,68.630 82.024,66.238 83.110 C 65.241 83.563,63.104 84.814,61.489 85.889 C 59.875 86.964,58.272 87.999,57.927 88.188 C 57.268 88.551,53.124 91.351,51.406 92.596 C 50.269 93.419,42.717 97.388,37.401 99.956 C 32.799 102.180,32.361 102.522,32.024 104.153 C 31.578 106.315,31.784 299.004,32.233 299.881 C 32.474 300.349,33.370 300.975,35.166 301.929 C 36.588 302.684,39.134 304.057,40.823 304.980 C 42.512 305.903,43.998 306.659,44.127 306.659 C 44.385 306.659,49.205 309.216,52.038 310.856 C 55.330 312.762,55.803 313.054,57.170 314.018 C 59.831 315.896,63.517 318.387,63.633 318.387 C 63.698 318.387,64.444 318.864,65.291 319.447 C 66.137 320.029,67.450 320.752,68.209 321.053 C 68.967 321.354,69.835 321.863,70.138 322.185 C 70.440 322.506,71.194 322.941,71.813 323.150 C 73.361 323.673,81.278 328.757,82.114 329.764 C 82.278 329.963,82.810 330.306,83.296 330.526 C 83.781 330.747,85.075 331.514,86.171 332.232 C 87.267 332.950,88.248 333.537,88.351 333.537 C 88.454 333.537,88.732 333.712,88.968 333.926 C 89.624 334.520,93.480 336.560,93.654 336.405 C 93.690 336.373,93.985 336.594,94.310 336.897 C 94.634 337.199,95.091 337.447,95.325 337.447 C 95.559 337.447,95.895 337.588,96.073 337.761 C 96.251 337.934,96.836 338.279,97.373 338.527 C 97.911 338.776,99.120 339.425,100.061 339.971 C 101.002 340.517,102.761 341.470,103.971 342.089 C 105.180 342.708,107.159 343.772,108.369 344.453 C 109.578 345.134,111.118 345.992,111.790 346.361 C 112.462 346.729,113.134 347.184,113.283 347.370 C 113.432 347.557,113.740 347.709,113.968 347.709 C 114.195 347.709,114.788 347.922,115.285 348.181 C 116.403 348.766,120.589 350.727,121.510 351.097 C 121.883 351.247,122.401 351.729,122.660 352.167 C 123.174 353.035,123.459 353.188,126.629 354.301 C 127.885 354.742,129.944 355.783,131.638 356.834 C 133.220 357.815,135.504 359.210,136.714 359.933 C 137.923 360.657,139.407 361.599,140.012 362.025 C 140.617 362.452,142.156 363.401,143.433 364.136 C 144.710 364.871,146.579 365.998,147.587 366.642 C 148.595 367.285,150.428 368.457,151.661 369.245 C 152.893 370.033,153.998 370.678,154.117 370.678 C 154.235 370.678,155.391 371.377,156.686 372.230 C 158.190 373.222,159.841 374.062,161.256 374.556 C 163.385 375.300,164.004 375.684,167.087 378.171 C 167.883 378.814,169.229 379.522,170.735 380.091 C 175.310 381.820,181.249 385.355,182.640 387.178 C 182.996 387.645,183.398 388.027,183.534 388.027 C 183.669 388.027,186.055 389.491,188.836 391.281 C 192.799 393.832,194.488 394.764,196.652 395.599 C 198.171 396.185,199.469 396.755,199.538 396.866 C 199.693 397.118,204.694 397.135,204.806 396.885 C 204.907 396.656,206.965 395.374,209.530 393.943 C 210.605 393.343,213.299 391.781,215.516 390.472 C 217.734 389.163,219.672 388.050,219.823 387.998 C 219.974 387.947,222.118 386.714,224.588 385.258 C 229.269 382.500,231.643 381.120,241.131 375.646 C 244.267 373.837,247.423 371.979,248.145 371.518 C 248.867 371.056,249.516 370.678,249.587 370.678 C 249.658 370.678,251.340 369.724,253.325 368.559 C 255.310 367.393,258.583 365.490,260.599 364.331 C 266.769 360.782,272.405 357.515,275.993 355.408 C 279.098 353.584,286.536 349.269,292.853 345.626 C 295.736 343.963,303.326 339.561,311.179 334.998 C 327.855 325.307,333.848 321.905,333.981 322.053 C 334.042 322.120,334.183 321.927,334.295 321.625 C 334.510 321.045,336.823 319.457,339.279 318.203 C 340.086 317.792,342.285 316.511,344.166 315.358 C 346.048 314.204,348.247 312.936,349.053 312.539 C 349.859 312.143,351.234 311.380,352.108 310.844 C 353.644 309.901,356.292 308.351,362.306 304.874 C 363.887 303.960,365.987 302.723,366.973 302.125 C 367.958 301.528,368.846 301.038,368.946 301.038 C 369.045 301.038,369.393 300.755,369.719 300.408 L 370.312 299.777 370.385 203.584 C 370.426 150.678,370.388 106.579,370.300 105.586 C 370.105 103.367,370.066 103.326,365.932 101.038 C 364.233 100.098,361.389 98.464,359.613 97.408 C 357.837 96.352,355.088 94.781,353.504 93.916 C 351.920 93.051,349.072 91.414,347.175 90.277 C 345.278 89.140,343.635 88.210,343.525 88.210 C 343.414 88.210,341.395 87.058,339.036 85.649 C 336.678 84.240,334.119 82.774,333.349 82.391 C 332.579 82.008,330.534 80.841,328.806 79.798 C 327.077 78.755,324.328 77.182,322.697 76.303 C 321.066 75.425,319.291 74.407,318.754 74.042 C 318.216 73.677,316.512 72.685,314.966 71.836 C 313.421 70.988,310.342 69.222,308.125 67.912 C 305.907 66.602,303.488 65.246,302.749 64.899 C 302.010 64.551,299.591 63.164,297.373 61.817 C 295.156 60.469,292.919 59.238,292.403 59.082 C 291.844 58.913,290.690 58.100,289.548 57.071 C 288.122 55.788,286.704 54.850,284.015 53.414 C 282.027 52.352,279.299 50.826,277.954 50.022 C 276.608 49.219,274.791 48.208,273.917 47.776 C 273.043 47.344,270.513 45.946,268.296 44.670 C 266.078 43.394,263.604 42.023,262.798 41.624 C 261.991 41.224,259.847 40.032,258.033 38.975 C 256.219 37.918,253.580 36.456,252.169 35.726 C 250.757 34.996,249.328 34.208,248.992 33.975 C 248.315 33.507,244.683 31.477,241.295 29.675 C 240.086 29.032,238.436 28.103,237.630 27.612 C 236.823 27.121,235.014 26.083,233.608 25.305 C 232.202 24.528,230.083 23.070,228.898 22.065 C 226.713 20.211,226.684 20.195,214.539 14.059 C 213.396 13.482,211.747 12.668,210.874 12.251 C 209.933 11.801,208.438 10.733,207.208 9.630 C 204.144 6.882,201.530 6.131,198.656 7.173 M202.105 11.445 C 202.426 11.693,203.457 12.325,204.397 12.850 C 205.337 13.376,206.294 13.916,206.524 14.050 C 208.798 15.377,211.748 17.073,214.172 18.447 C 219.162 21.275,221.616 22.684,225.268 24.820 C 227.204 25.952,228.818 26.878,228.854 26.878 C 228.890 26.878,229.815 27.428,230.910 28.100 C 232.005 28.772,232.941 29.322,232.991 29.322 C 233.041 29.322,234.709 30.270,236.699 31.430 C 238.689 32.589,240.660 33.734,241.079 33.973 C 241.498 34.212,242.581 34.858,243.487 35.408 C 244.392 35.958,245.170 36.408,245.216 36.408 C 245.284 36.408,248.410 38.211,253.390 41.124 C 253.861 41.399,255.620 42.388,257.300 43.322 C 258.980 44.256,261.839 45.903,263.653 46.982 C 266.934 48.934,267.661 49.357,269.762 50.531 C 270.367 50.869,272.797 52.277,275.163 53.660 C 277.529 55.043,279.865 56.366,280.355 56.599 C 280.845 56.833,281.246 57.114,281.246 57.223 C 281.246 57.333,281.351 57.422,281.479 57.422 C 281.607 57.422,283.213 58.302,285.049 59.377 C 286.884 60.452,288.437 61.332,288.500 61.332 C 288.563 61.332,289.952 62.137,291.589 63.121 C 293.225 64.105,295.333 65.329,296.274 65.841 C 297.214 66.353,299.249 67.514,300.794 68.422 C 302.340 69.329,303.989 70.289,304.459 70.554 C 304.930 70.820,306.689 71.836,308.369 72.811 C 311.314 74.522,315.110 76.707,317.242 77.918 C 318.291 78.514,322.373 80.944,323.030 81.363 C 323.766 81.834,330.423 85.522,330.536 85.522 C 330.599 85.522,330.959 85.741,331.335 86.009 C 332.029 86.503,337.910 89.921,338.066 89.921 C 338.113 89.921,339.144 90.525,340.357 91.265 C 341.571 92.004,342.618 92.608,342.684 92.608 C 342.751 92.608,343.606 93.085,344.585 93.669 C 349.498 96.594,351.847 97.976,352.902 98.562 C 355.860 100.204,357.816 101.342,364.030 105.035 C 364.742 105.457,365.385 105.803,365.459 105.803 C 365.533 105.803,365.913 106.031,366.303 106.309 L 367.013 106.814 367.009 202.155 C 367.007 254.592,366.925 297.612,366.826 297.754 C 366.727 297.896,365.877 298.438,364.936 298.957 C 362.099 300.523,357.100 303.411,353.033 305.833 C 351.593 306.690,350.361 307.392,350.296 307.392 C 350.231 307.392,349.704 307.707,349.126 308.093 C 348.549 308.479,347.306 309.210,346.365 309.717 C 345.425 310.224,344.545 310.721,344.411 310.821 C 344.276 310.921,343.341 311.441,342.334 311.977 C 341.326 312.513,339.158 313.787,337.516 314.808 C 335.874 315.828,334.005 316.947,333.362 317.294 C 332.056 317.999,331.965 318.053,329.388 319.645 C 328.377 320.270,327.166 320.988,326.695 321.242 C 326.225 321.495,325.389 321.992,324.838 322.346 C 324.286 322.701,322.802 323.563,321.539 324.263 C 320.276 324.962,318.693 325.895,318.021 326.336 C 317.349 326.776,316.387 327.367,315.883 327.649 C 315.379 327.931,314.554 328.399,314.050 328.691 C 313.546 328.982,312.529 329.545,311.790 329.942 C 309.678 331.078,307.116 332.576,306.048 333.299 C 305.510 333.663,303.531 334.813,301.649 335.854 C 299.768 336.895,296.937 338.508,295.358 339.438 C 293.780 340.368,291.753 341.513,290.854 341.981 C 289.955 342.450,288.862 343.106,288.426 343.439 C 287.989 343.772,287.559 344.044,287.470 344.044 C 287.381 344.044,287.016 344.248,286.660 344.498 C 286.303 344.747,285.516 345.225,284.911 345.560 C 282.014 347.163,278.494 349.207,276.726 350.311 C 275.651 350.983,273.671 352.120,272.327 352.838 C 270.984 353.556,268.180 355.137,266.097 356.352 C 264.013 357.566,261.693 358.895,260.940 359.304 C 260.188 359.714,258.263 360.825,256.664 361.772 C 255.065 362.720,251.393 364.851,248.503 366.507 C 238.920 371.999,228.840 377.794,228.359 378.086 C 228.098 378.245,227.306 378.732,226.599 379.169 C 225.892 379.606,225.243 379.963,225.156 379.963 C 225.070 379.963,224.707 380.166,224.350 380.413 C 223.994 380.660,222.822 381.335,221.747 381.912 C 217.512 384.185,208.238 389.824,206.964 390.900 C 206.494 391.298,205.669 391.764,205.131 391.935 C 204.594 392.107,203.746 392.452,203.247 392.703 C 201.687 393.487,201.925 393.575,195.602 389.859 C 193.720 388.753,189.927 386.552,187.172 384.967 C 184.417 383.382,181.499 381.677,180.688 381.177 C 179.402 380.383,172.503 376.411,169.334 374.640 C 168.729 374.301,167.190 373.401,165.913 372.638 C 164.637 371.875,162.547 370.664,161.271 369.946 C 159.994 369.228,158.125 368.151,157.117 367.551 C 154.528 366.013,151.159 364.058,149.297 363.014 C 148.424 362.525,147.269 361.866,146.732 361.551 C 146.194 361.236,144.545 360.285,143.067 359.438 C 141.588 358.591,138.058 356.547,135.222 354.896 C 132.386 353.244,129.418 351.550,128.625 351.132 C 127.832 350.714,126.854 350.161,126.451 349.903 C 126.048 349.646,125.388 349.253,124.985 349.031 C 124.582 348.809,124.087 348.489,123.885 348.320 C 123.684 348.151,122.749 347.602,121.808 347.100 C 119.493 345.864,117.719 344.875,116.219 343.986 C 115.530 343.577,114.637 343.054,114.233 342.823 C 110.951 340.942,106.666 338.444,105.447 337.700 C 104.635 337.206,103.201 336.382,102.260 335.870 C 98.666 333.913,97.812 333.423,96.203 332.392 C 95.290 331.807,92.585 330.243,90.192 328.916 C 87.799 327.589,85.357 326.193,84.765 325.814 C 84.174 325.434,81.985 324.146,79.902 322.951 C 77.819 321.756,75.785 320.584,75.382 320.346 C 74.979 320.109,73.824 319.444,72.816 318.870 C 71.808 318.295,69.004 316.672,66.585 315.262 C 64.166 313.852,61.747 312.450,61.210 312.147 C 60.672 311.844,58.308 310.467,55.956 309.086 C 53.604 307.705,50.690 306.028,49.481 305.359 C 48.271 304.690,45.907 303.312,44.227 302.296 C 42.547 301.281,40.568 300.145,39.829 299.772 C 39.090 299.399,37.935 298.772,37.263 298.379 L 36.042 297.665 35.980 202.330 C 35.941 141.759,36.004 106.834,36.153 106.556 C 36.362 106.165,41.329 103.095,45.338 100.878 C 46.523 100.223,50.208 98.109,52.727 96.640 C 52.957 96.506,53.806 96.020,54.612 95.562 C 55.418 95.103,56.874 94.251,57.846 93.668 C 58.818 93.085,59.652 92.608,59.700 92.608 C 59.749 92.608,61.246 91.729,63.027 90.654 C 64.809 89.578,66.305 88.699,66.353 88.699 C 66.426 88.699,72.880 85.005,74.038 84.300 C 75.162 83.617,81.708 79.821,84.545 78.208 C 86.359 77.177,89.493 75.368,91.509 74.189 C 102.076 68.006,108.232 64.425,109.713 63.600 C 110.049 63.413,110.709 63.034,111.179 62.756 C 111.649 62.479,113.958 61.151,116.310 59.806 C 118.662 58.460,120.889 57.146,121.259 56.885 C 121.628 56.625,122.728 55.993,123.702 55.481 C 124.676 54.970,126.738 53.810,128.283 52.903 C 133.242 49.996,135.709 48.565,136.836 47.942 C 137.440 47.608,138.227 47.130,138.584 46.880 C 138.941 46.631,139.286 46.426,139.351 46.426 C 139.479 46.426,145.540 42.911,147.343 41.791 C 147.947 41.415,148.965 40.820,149.603 40.468 C 152.315 38.975,153.099 38.532,153.329 38.363 C 153.643 38.133,155.283 37.231,158.278 35.641 C 161.092 34.148,166.477 31.164,168.306 30.085 C 169.018 29.665,169.653 29.322,169.717 29.322 C 169.782 29.322,170.519 28.899,171.356 28.381 C 173.341 27.154,179.590 23.493,181.307 22.552 C 182.046 22.147,185.070 20.409,188.027 18.690 C 190.984 16.971,194.206 15.114,195.187 14.563 C 196.169 14.012,197.928 12.990,199.097 12.292 C 201.573 10.813,201.363 10.873,202.105 11.445 M198.167 38.337 C 197.563 38.580,195.858 39.456,194.380 40.284 C 192.902 41.112,191.197 41.977,190.593 42.205 C 189.473 42.628,186.664 44.189,184.239 45.735 C 183.500 46.206,180.422 47.995,177.398 49.710 C 174.374 51.426,171.370 53.148,170.723 53.537 C 170.076 53.927,169.500 54.246,169.445 54.246 C 169.389 54.246,168.742 54.630,168.007 55.101 C 167.271 55.571,166.610 55.956,166.537 55.956 C 166.464 55.956,164.178 57.237,161.455 58.802 C 158.733 60.368,156.176 61.837,155.773 62.066 C 155.370 62.296,153.610 63.306,151.863 64.311 C 150.116 65.316,148.192 66.418,147.587 66.761 C 146.982 67.104,145.333 68.038,143.922 68.838 C 140.160 70.969,139.650 71.265,138.623 71.906 C 138.110 72.227,136.921 72.909,135.980 73.421 C 135.040 73.934,131.961 75.694,129.139 77.333 C 126.316 78.971,122.871 80.962,121.483 81.756 C 120.094 82.551,118.665 83.378,118.306 83.594 C 117.948 83.810,117.269 84.206,116.799 84.473 C 112.439 86.952,110.338 88.158,104.093 91.765 C 95.792 96.558,88.628 100.693,87.721 101.214 C 87.251 101.484,84.671 102.972,81.988 104.521 C 79.305 106.070,76.635 107.603,76.054 107.927 C 75.474 108.251,73.766 109.238,72.258 110.120 C 68.764 112.164,68.724 112.187,64.508 114.596 C 60.748 116.744,59.032 117.739,57.056 118.916 L 55.834 119.643 55.772 203.074 L 55.711 286.504 58.827 288.307 C 60.540 289.299,62.822 290.600,63.897 291.200 C 64.973 291.799,67.666 293.363,69.884 294.676 C 72.101 295.989,75.345 297.864,77.092 298.842 C 78.839 299.820,81.230 301.209,82.404 301.929 C 83.579 302.649,84.629 303.238,84.739 303.238 C 84.848 303.238,85.482 303.583,86.146 304.004 C 87.456 304.835,90.577 306.661,94.441 308.857 C 95.785 309.621,97.544 310.641,98.351 311.123 C 99.696 311.928,101.995 313.240,104.459 314.609 C 104.997 314.908,106.068 315.523,106.839 315.976 C 107.611 316.428,109.370 317.445,110.749 318.235 C 112.128 319.025,115.154 320.785,117.474 322.145 C 119.794 323.505,122.378 324.987,123.216 325.438 C 124.055 325.890,126.555 327.332,128.772 328.643 C 130.990 329.955,133.774 331.565,134.961 332.221 C 136.147 332.878,137.521 333.660,138.015 333.959 C 138.509 334.258,139.168 334.616,139.481 334.754 C 139.793 334.892,140.516 335.326,141.086 335.718 C 141.656 336.110,142.774 336.773,143.572 337.191 C 144.369 337.610,145.186 338.049,145.388 338.169 C 146.808 339.009,151.163 341.427,152.474 342.104 C 153.348 342.554,154.722 343.378,155.528 343.933 C 156.335 344.489,159.249 346.232,162.004 347.806 C 168.174 351.333,167.279 350.813,170.312 352.636 C 171.723 353.484,173.458 354.483,174.168 354.855 C 174.878 355.228,176.197 355.988,177.100 356.546 C 178.003 357.103,179.126 357.769,179.597 358.026 C 180.067 358.284,180.892 358.758,181.429 359.080 C 181.967 359.402,183.012 359.987,183.751 360.380 C 184.490 360.773,186.524 361.949,188.271 362.993 C 190.018 364.038,192.547 365.515,193.891 366.275 C 195.235 367.036,196.775 367.909,197.312 368.215 C 200.038 369.769,200.137 369.809,200.561 369.547 C 200.790 369.406,201.472 369.010,202.077 368.668 C 204.433 367.335,207.991 365.291,211.851 363.053 C 214.068 361.767,216.295 360.483,216.799 360.199 C 217.303 359.915,218.073 359.473,218.509 359.216 C 218.946 358.960,221.008 357.772,223.091 356.575 C 225.174 355.379,228.968 353.185,231.521 351.699 C 234.075 350.214,236.659 348.722,237.263 348.384 C 237.868 348.046,239.682 346.999,241.295 346.058 C 242.908 345.116,247.801 342.288,252.169 339.772 C 256.536 337.256,261.100 334.617,262.309 333.906 C 263.519 333.196,265.058 332.310,265.730 331.938 C 266.402 331.565,270.305 329.317,274.404 326.942 C 282.272 322.383,294.215 315.490,296.275 314.318 C 300.419 311.962,301.527 311.308,303.088 310.298 C 304.044 309.679,306.750 308.071,309.102 306.724 C 311.454 305.377,315.687 302.928,318.509 301.283 C 321.332 299.638,324.356 297.902,325.229 297.425 C 326.103 296.949,327.587 296.103,328.528 295.547 C 330.565 294.341,331.259 293.937,338.546 289.709 L 344.166 286.449 344.166 203.191 L 344.166 119.932 343.650 119.515 C 343.367 119.285,341.717 118.286,339.985 117.295 C 338.253 116.303,334.032 113.874,330.605 111.897 C 327.178 109.919,323.824 107.999,323.152 107.630 C 322.480 107.262,321.820 106.878,321.686 106.778 C 321.475 106.620,315.541 103.197,312.279 101.351 C 311.674 101.008,309.946 100.006,308.438 99.124 C 306.931 98.242,305.226 97.255,304.651 96.931 C 304.075 96.608,302.230 95.546,300.550 94.573 C 298.870 93.599,294.142 90.875,290.043 88.519 C 285.944 86.163,281.326 83.496,279.780 82.592 C 278.235 81.688,276.475 80.674,275.870 80.339 C 275.266 80.004,272.529 78.438,269.788 76.860 C 267.047 75.282,264.408 73.766,263.924 73.491 C 263.439 73.216,262.712 72.793,262.309 72.550 C 261.906 72.307,260.268 71.360,258.669 70.446 C 257.070 69.532,255.476 68.618,255.126 68.415 C 254.776 68.212,253.555 67.520,252.413 66.878 C 251.271 66.236,249.951 65.480,249.481 65.198 C 249.010 64.915,248.131 64.409,247.526 64.071 C 245.486 62.934,243.271 61.670,238.241 58.770 C 235.486 57.182,232.737 55.606,232.132 55.268 C 231.527 54.930,230.703 54.466,230.299 54.237 C 229.896 54.007,227.092 52.418,224.068 50.706 C 221.045 48.993,218.279 47.384,217.922 47.131 C 217.565 46.878,217.166 46.671,217.035 46.671 C 216.833 46.671,211.952 43.692,206.597 40.301 C 202.846 37.925,200.539 37.388,198.167 38.337 M210.629 54.000 C 211.503 54.147,212.547 54.370,212.951 54.496 C 213.354 54.621,214.398 54.889,215.272 55.092 C 234.196 59.481,242.852 79.315,230.128 89.131 C 219.066 97.665,203.776 89.493,205.246 75.833 C 205.399 74.412,205.491 73.226,205.450 73.196 C 204.975 72.853,198.373 70.806,196.335 70.369 C 194.537 69.984,192.189 69.415,191.326 69.155 C 190.215 68.821,189.484 69.747,186.123 75.748 C 183.365 80.673,182.209 90.096,183.124 100.191 C 183.950 109.296,184.580 111.928,187.585 118.821 C 188.594 121.136,189.694 123.686,190.029 124.488 C 190.365 125.289,191.495 127.708,192.540 129.863 C 194.716 134.347,195.459 135.934,197.066 139.524 C 197.698 140.935,198.809 143.333,199.535 144.852 C 200.261 146.372,200.855 147.661,200.855 147.716 C 200.855 147.772,201.130 148.418,201.466 149.152 C 201.802 149.887,202.077 150.539,202.077 150.601 C 202.077 150.734,203.450 153.694,205.650 158.305 C 206.507 160.101,207.208 161.618,207.208 161.675 C 207.208 162.162,215.588 179.244,217.258 182.162 C 217.873 183.238,219.182 185.547,220.165 187.294 C 224.192 194.447,224.390 194.636,228.060 194.828 C 231.170 194.990,231.247 195.037,231.888 197.192 C 232.486 199.198,232.440 199.337,230.755 200.637 C 229.336 201.731,228.955 202.236,228.955 203.021 C 228.955 203.427,234.247 214.141,234.825 214.905 C 234.927 215.040,235.615 216.469,236.354 218.082 C 237.093 219.695,238.494 222.663,239.466 224.679 C 241.198 228.271,243.349 233.253,245.479 238.607 C 247.217 242.976,250.170 252.443,251.425 257.666 C 252.520 262.227,252.595 262.588,252.906 264.753 C 253.060 265.828,253.281 267.257,253.397 267.929 C 254.570 274.752,254.565 292.589,253.389 299.206 C 253.269 299.878,253.052 301.252,252.906 302.260 C 252.761 303.268,252.540 304.478,252.415 304.948 C 252.291 305.418,251.899 306.958,251.543 308.369 C 245.508 332.338,232.161 345.859,211.362 349.077 C 196.851 351.322,177.814 346.582,170.380 338.873 C 160.588 328.720,158.911 317.793,165.724 308.549 C 169.333 303.652,175.152 300.742,181.429 300.696 C 184.618 300.672,184.935 300.725,188.271 301.837 C 197.627 304.957,202.522 314.440,199.720 324.017 C 198.325 328.790,198.243 328.380,200.779 329.357 C 202.935 330.188,207.727 331.873,215.254 334.447 L 219.267 335.820 219.896 335.062 C 221.506 333.121,226.302 322.783,227.689 318.265 C 230.931 307.700,231.084 292.195,228.086 278.192 C 227.885 277.251,227.556 275.657,227.355 274.649 C 226.914 272.433,225.325 266.616,224.787 265.241 C 224.681 264.973,224.362 263.928,224.077 262.920 C 223.793 261.912,223.455 260.867,223.328 260.599 C 223.200 260.330,222.543 258.492,221.868 256.515 C 220.770 253.302,218.255 246.961,216.970 244.169 C 216.708 243.599,216.494 243.071,216.494 242.996 C 216.494 242.767,214.556 238.234,213.664 236.378 C 213.205 235.421,212.828 234.582,212.828 234.514 C 212.828 234.445,212.169 232.998,211.362 231.297 C 210.556 229.596,209.896 228.156,209.896 228.096 C 209.896 227.944,204.365 216.592,202.220 212.340 C 200.098 208.135,200.178 208.194,196.632 208.189 C 192.922 208.184,192.536 207.988,191.812 205.736 L 191.242 203.961 192.228 203.080 C 192.771 202.596,193.670 201.836,194.225 201.391 C 195.692 200.218,195.534 199.155,193.145 194.090 C 192.816 193.392,192.547 192.765,192.547 192.696 C 192.547 192.627,191.228 189.862,189.615 186.551 C 188.002 183.240,186.683 180.489,186.683 180.437 C 186.683 180.385,185.872 178.663,184.882 176.610 C 183.004 172.718,182.750 172.169,181.062 168.357 C 180.496 167.080,179.715 165.348,179.327 164.508 C 178.938 163.667,178.619 162.928,178.619 162.865 C 178.619 162.803,178.356 162.171,178.035 161.461 C 177.240 159.710,175.727 156.043,175.183 154.551 C 174.938 153.879,174.393 152.395,173.973 151.252 C 171.207 143.731,170.956 142.985,169.083 136.714 C 166.885 129.358,166.115 126.223,164.942 119.853 C 163.098 109.849,163.136 98.486,165.037 90.898 C 168.736 76.139,176.266 64.368,185.706 58.587 C 190.882 55.417,193.823 54.428,200.367 53.657 C 201.846 53.483,208.970 53.721,210.629 54.000 " stroke="none" fill="#fbfbfb" fill-rule="evenodd"></path><path id="path2" d="M195.228 14.498 C 194.493 14.946,192.764 15.948,191.387 16.723 C 190.009 17.499,188.882 18.181,188.882 18.238 C 188.882 18.367,189.472 18.063,191.692 16.790 C 196.067 14.282,197.019 13.684,196.633 13.684 C 196.595 13.684,195.962 14.050,195.228 14.498 M187.117 19.157 C 185.810 19.934,185.651 20.186,186.850 19.581 C 187.412 19.298,187.940 18.955,188.025 18.818 C 188.218 18.505,188.209 18.509,187.117 19.157 M217.104 20.205 C 217.480 20.574,222.161 23.243,222.013 23.004 C 221.941 22.888,220.863 22.211,219.616 21.499 C 216.904 19.951,216.782 19.888,217.104 20.205 M183.690 21.154 C 182.776 21.649,182.832 21.856,183.751 21.381 C 184.154 21.172,184.484 20.949,184.484 20.886 C 184.484 20.728,184.458 20.737,183.690 21.154 M225.779 25.278 C 225.779 25.345,226.109 25.570,226.512 25.779 C 226.915 25.987,227.245 26.103,227.245 26.036 C 227.245 25.969,226.915 25.743,226.512 25.535 C 226.109 25.326,225.779 25.210,225.779 25.278 M230.422 27.965 C 230.422 28.033,230.751 28.258,231.155 28.467 C 231.558 28.675,231.888 28.791,231.888 28.724 C 231.888 28.656,231.558 28.431,231.155 28.222 C 230.751 28.014,230.422 27.898,230.422 27.965 M235.553 30.858 C 235.553 30.969,238.163 32.561,239.401 33.207 C 240.499 33.779,239.918 33.259,238.668 32.552 C 237.963 32.152,236.973 31.581,236.469 31.283 C 235.965 30.984,235.553 30.793,235.553 30.858 M163.048 33.040 C 162.077 33.600,161.320 34.095,161.365 34.141 C 161.461 34.237,164.936 32.261,164.936 32.111 C 164.936 31.954,164.919 31.962,163.048 33.040 M153.940 37.972 C 153.111 38.513,152.131 39.077,149.273 40.660 C 148.521 41.076,147.641 41.616,147.319 41.859 C 146.821 42.234,146.862 42.229,147.587 41.828 C 148.057 41.568,148.965 41.067,149.603 40.714 C 153.457 38.586,155.422 37.389,155.040 37.404 C 154.905 37.410,154.411 37.665,153.940 37.972 M144.594 43.390 C 143.680 43.885,143.736 44.092,144.655 43.616 C 145.058 43.408,145.388 43.185,145.388 43.121 C 145.388 42.964,145.362 42.973,144.594 43.390 M257.544 43.580 C 257.544 43.637,258.506 44.232,259.682 44.902 C 260.858 45.572,262.233 46.365,262.737 46.664 C 263.241 46.963,263.653 47.152,263.653 47.084 C 263.653 47.016,262.526 46.305,261.148 45.505 C 258.197 43.790,257.544 43.441,257.544 43.580 M213.561 44.565 C 213.561 44.736,216.824 46.671,217.112 46.671 C 217.397 46.671,216.738 46.228,214.966 45.228 C 214.194 44.792,213.561 44.494,213.561 44.565 M141.662 45.100 C 140.748 45.596,140.804 45.802,141.723 45.327 C 142.126 45.118,142.456 44.896,142.456 44.832 C 142.456 44.675,142.429 44.683,141.662 45.100 M182.407 46.583 C 181.332 47.202,178.528 48.811,176.176 50.159 C 172.434 52.305,170.223 53.694,172.022 52.770 C 173.312 52.107,184.129 45.875,184.349 45.668 C 184.784 45.259,184.364 45.456,182.407 46.583 M217.838 47.030 C 218.106 47.253,220.086 48.433,222.236 49.651 C 224.386 50.870,226.228 51.914,226.329 51.971 C 226.429 52.028,226.512 52.023,226.512 51.958 C 226.512 51.894,224.890 50.911,222.908 49.774 C 217.909 46.907,217.276 46.565,217.838 47.030 M265.119 48.002 C 265.119 48.069,265.449 48.295,265.852 48.503 C 266.255 48.712,266.585 48.827,266.585 48.760 C 266.585 48.693,266.255 48.468,265.852 48.259 C 265.449 48.051,265.119 47.935,265.119 48.002 M270.250 50.934 C 270.250 51.002,270.580 51.227,270.984 51.436 C 271.387 51.644,271.717 51.760,271.717 51.692 C 271.717 51.625,271.387 51.400,270.984 51.191 C 270.580 50.983,270.250 50.867,270.250 50.934 M226.756 52.156 C 226.756 52.223,227.086 52.449,227.489 52.657 C 227.892 52.866,228.222 52.981,228.222 52.914 C 228.222 52.847,227.892 52.621,227.489 52.413 C 227.086 52.204,226.756 52.089,226.756 52.156 M229.284 53.656 C 229.796 54.004,230.266 54.238,230.329 54.175 C 230.445 54.059,228.817 53.024,228.518 53.024 C 228.427 53.024,228.772 53.308,229.284 53.656 M169.945 53.757 C 169.542 54.024,169.322 54.241,169.456 54.239 C 169.701 54.235,171.030 53.282,170.800 53.275 C 170.733 53.273,170.348 53.490,169.945 53.757 M202.637 53.694 C 203.550 53.741,204.979 53.741,205.813 53.693 C 206.648 53.646,205.901 53.607,204.154 53.607 C 202.407 53.608,201.724 53.647,202.637 53.694 M198.717 53.925 C 198.952 53.987,199.337 53.987,199.572 53.925 C 199.808 53.864,199.615 53.814,199.145 53.814 C 198.674 53.814,198.482 53.864,198.717 53.925 M167.674 55.022 C 166.962 55.434,166.428 55.819,166.487 55.878 C 166.598 55.989,169.090 54.523,169.090 54.347 C 169.090 54.202,169.095 54.199,167.674 55.022 M230.666 54.328 C 230.666 54.493,232.422 55.504,232.527 55.399 C 232.575 55.350,232.177 55.063,231.641 54.762 C 231.104 54.461,230.666 54.265,230.666 54.328 M122.925 55.865 C 121.461 56.706,120.062 57.666,120.302 57.666 C 120.410 57.666,120.978 57.337,121.564 56.933 C 122.150 56.530,122.689 56.200,122.763 56.200 C 122.836 56.200,123.256 55.981,123.696 55.713 C 124.861 55.002,124.200 55.133,122.925 55.865 M165.363 56.340 C 164.450 56.836,164.506 57.042,165.425 56.567 C 165.828 56.358,166.158 56.136,166.158 56.072 C 166.158 55.915,166.131 55.924,165.363 56.340 M233.598 56.072 C 233.598 56.136,233.955 56.362,234.392 56.575 L 235.186 56.963 234.575 56.465 C 233.987 55.985,233.598 55.829,233.598 56.072 M163.152 57.531 C 162.642 57.834,162.092 58.218,161.931 58.385 C 161.684 58.641,164.125 57.315,164.427 57.030 C 164.721 56.751,163.963 57.049,163.152 57.531 M235.553 57.190 C 236.190 57.624,237.263 58.172,237.263 58.063 C 237.263 57.928,235.577 56.932,235.356 56.937 C 235.262 56.939,235.351 57.053,235.553 57.190 M237.508 58.265 C 237.508 58.332,237.838 58.558,238.241 58.766 C 238.644 58.975,238.974 59.090,238.974 59.023 C 238.974 58.956,238.644 58.730,238.241 58.522 C 237.838 58.313,237.508 58.198,237.508 58.265 M239.340 59.304 C 239.475 59.443,240.134 59.864,240.806 60.240 C 241.478 60.616,241.918 60.810,241.784 60.671 C 241.649 60.533,240.990 60.112,240.318 59.736 C 239.646 59.360,239.206 59.166,239.340 59.304 M158.764 60.089 C 157.787 60.715,157.607 60.969,158.461 60.516 C 159.484 59.974,159.970 59.626,159.682 59.643 C 159.548 59.651,159.135 59.851,158.764 60.089 M115.027 60.494 C 114.114 60.990,114.170 61.196,115.089 60.721 C 115.492 60.512,115.822 60.290,115.822 60.226 C 115.822 60.069,115.795 60.077,115.027 60.494 M156.506 61.448 C 155.968 61.779,155.605 62.053,155.698 62.057 C 155.909 62.067,157.605 61.074,157.605 60.941 C 157.605 60.782,157.530 60.817,156.506 61.448 M112.523 61.948 C 111.717 62.420,110.892 62.912,110.690 63.040 C 110.489 63.168,109.965 63.454,109.526 63.676 C 109.087 63.898,108.666 64.178,108.592 64.299 C 108.474 64.489,109.513 63.975,110.887 63.164 C 111.115 63.030,111.933 62.555,112.706 62.108 C 113.479 61.661,114.111 61.249,114.111 61.192 C 114.111 61.023,114.057 61.049,112.523 61.948 M229.190 62.370 C 229.789 63.009,230.311 63.531,230.350 63.531 C 230.534 63.531,230.340 63.311,229.261 62.299 L 228.100 61.210 229.190 62.370 M243.257 61.654 C 244.153 62.254,246.672 63.586,246.426 63.331 C 246.145 63.039,243.157 61.332,242.928 61.332 C 242.843 61.332,242.991 61.477,243.257 61.654 M288.353 61.418 C 288.680 61.696,290.776 62.824,290.776 62.722 C 290.776 62.573,288.683 61.332,288.431 61.332 C 288.332 61.332,288.297 61.371,288.353 61.418 M154.365 62.645 C 153.192 63.366,152.864 63.707,153.818 63.214 C 154.584 62.818,155.617 62.080,155.406 62.080 C 155.339 62.080,154.871 62.334,154.365 62.645 M106.593 65.346 C 104.898 66.399,104.619 66.737,106.170 65.858 C 107.730 64.974,108.419 64.503,108.118 64.528 C 107.987 64.538,107.301 64.907,106.593 65.346 M148.876 65.783 C 147.905 66.343,147.147 66.838,147.193 66.883 C 147.289 66.979,150.764 65.004,150.764 64.854 C 150.764 64.697,150.747 64.705,148.876 65.783 M250.214 65.555 C 250.655 65.974,253.390 67.526,253.390 67.357 C 253.390 67.292,252.593 66.781,251.619 66.223 C 250.644 65.664,250.012 65.364,250.214 65.555 M296.416 66.071 C 296.514 66.164,303.596 70.308,304.093 70.563 C 304.256 70.647,304.256 70.605,304.093 70.438 C 303.802 70.140,296.685 65.974,296.466 65.974 C 296.383 65.974,296.360 66.018,296.416 66.071 M102.810 67.580 C 101.897 68.076,101.952 68.282,102.871 67.807 C 103.274 67.598,103.604 67.376,103.604 67.312 C 103.604 67.155,103.578 67.164,102.810 67.580 M145.327 67.825 C 144.413 68.320,144.469 68.527,145.388 68.051 C 145.791 67.843,146.121 67.620,146.121 67.556 C 146.121 67.399,146.095 67.408,145.327 67.825 M140.867 70.373 C 140.464 70.640,140.244 70.856,140.379 70.854 C 140.624 70.850,141.952 69.898,141.723 69.891 C 141.655 69.889,141.271 70.106,140.867 70.373 M304.704 70.873 C 305.551 71.449,306.034 71.616,305.437 71.128 C 305.101 70.853,304.716 70.627,304.582 70.626 C 304.447 70.625,304.502 70.736,304.704 70.873 M137.874 72.109 C 137.169 72.520,136.591 72.913,136.591 72.982 C 136.591 73.117,138.764 71.909,139.145 71.562 C 139.559 71.184,139.183 71.346,137.874 72.109 M306.659 71.948 C 306.659 72.016,306.988 72.241,307.392 72.450 C 307.795 72.658,308.125 72.774,308.125 72.707 C 308.125 72.639,307.795 72.414,307.392 72.205 C 306.988 71.997,306.659 71.881,306.659 71.948 M309.591 73.659 C 309.591 73.726,309.921 73.952,310.324 74.160 C 310.727 74.369,311.057 74.484,311.057 74.417 C 311.057 74.350,310.727 74.124,310.324 73.916 C 309.921 73.707,309.591 73.592,309.591 73.659 M236.115 77.214 C 236.115 77.954,236.161 78.256,236.217 77.886 C 236.273 77.517,236.273 76.912,236.217 76.542 C 236.161 76.173,236.115 76.475,236.115 77.214 M205.082 78.192 C 205.082 78.931,205.128 79.233,205.184 78.864 C 205.240 78.494,205.240 77.889,205.184 77.520 C 205.128 77.150,205.082 77.453,205.082 78.192 M83.034 79.023 C 81.074 80.143,79.940 80.880,80.177 80.880 C 80.438 80.880,85.257 77.987,85.034 77.964 C 84.966 77.957,84.067 78.434,83.034 79.023 M329.261 84.981 C 329.395 85.120,330.055 85.532,330.727 85.896 C 331.399 86.261,331.839 86.447,331.704 86.308 C 331.570 86.169,330.910 85.757,330.238 85.392 C 329.566 85.027,329.126 84.842,329.261 84.981 M70.312 86.395 C 69.398 86.891,69.454 87.097,70.373 86.622 C 70.776 86.413,71.106 86.191,71.106 86.127 C 71.106 85.970,71.079 85.979,70.312 86.395 M286.378 86.365 C 286.378 86.432,286.707 86.658,287.111 86.866 C 287.514 87.075,287.844 87.190,287.844 87.123 C 287.844 87.056,287.514 86.830,287.111 86.622 C 286.707 86.413,286.378 86.298,286.378 86.365 M231.386 87.905 L 230.544 88.821 231.460 87.979 C 232.313 87.195,232.489 86.988,232.302 86.988 C 232.261 86.988,231.849 87.401,231.386 87.905 M209.642 88.516 C 210.241 89.154,210.763 89.676,210.802 89.676 C 210.986 89.676,210.792 89.457,209.713 88.444 L 208.552 87.355 209.642 88.516 M64.086 89.989 C 63.384 90.406,62.845 90.782,62.889 90.826 C 63.001 90.938,65.208 89.684,65.376 89.412 C 65.559 89.115,65.560 89.115,64.086 89.989 M338.308 90.243 C 339.390 90.968,340.623 91.663,340.623 91.550 C 340.623 91.401,338.239 89.921,337.999 89.921 C 337.904 89.921,338.043 90.066,338.308 90.243 M103.115 92.142 C 102.710 92.473,102.669 92.556,102.993 92.389 C 103.790 91.977,104.232 91.638,103.971 91.640 C 103.836 91.641,103.451 91.867,103.115 92.142 M340.867 91.727 C 340.867 91.851,342.302 92.700,342.883 92.920 C 343.703 93.230,343.302 92.899,342.089 92.265 C 341.417 91.914,340.867 91.672,340.867 91.727 M343.555 93.191 C 343.555 93.306,345.061 94.217,349.175 96.591 C 349.646 96.863,349.921 96.966,349.786 96.821 C 349.652 96.676,348.552 95.989,347.343 95.295 C 346.133 94.600,344.786 93.813,344.349 93.545 C 343.913 93.277,343.555 93.118,343.555 93.191 M300.794 94.673 C 300.794 94.740,301.124 94.966,301.527 95.174 C 301.930 95.383,302.260 95.498,302.260 95.431 C 302.260 95.364,301.930 95.138,301.527 94.930 C 301.124 94.721,300.794 94.606,300.794 94.673 M164.015 97.007 C 164.015 97.477,164.065 97.670,164.127 97.434 C 164.188 97.199,164.188 96.814,164.127 96.579 C 164.065 96.344,164.015 96.536,164.015 97.007 M311.057 100.650 C 311.393 100.925,311.778 101.151,311.912 101.151 C 312.174 101.153,311.732 100.815,310.935 100.403 C 310.610 100.235,310.651 100.318,311.057 100.650 M183.079 101.283 C 183.082 101.820,183.132 102.012,183.191 101.708 C 183.249 101.404,183.247 100.964,183.186 100.730 C 183.124 100.497,183.077 100.745,183.079 101.283 M41.235 103.215 C 38.194 105.040,36.656 106.068,38.046 105.345 C 38.705 105.002,44.798 101.388,44.940 101.256 C 45.438 100.791,44.040 101.530,41.235 103.215 M163.568 104.826 C 163.568 106.909,163.606 107.761,163.651 106.720 C 163.697 105.678,163.697 103.974,163.651 102.932 C 163.606 101.891,163.568 102.743,163.568 104.826 M183.324 103.726 C 183.326 104.264,183.376 104.455,183.435 104.151 C 183.493 103.847,183.491 103.407,183.430 103.174 C 183.369 102.940,183.321 103.189,183.324 103.726 M183.568 106.170 C 183.571 106.707,183.621 106.899,183.679 106.595 C 183.738 106.291,183.735 105.851,183.674 105.617 C 183.613 105.384,183.565 105.632,183.568 106.170 M366.463 106.561 C 366.705 106.872,366.781 126.530,366.830 202.346 L 366.891 297.740 366.952 202.290 C 367.010 111.635,366.991 106.824,366.585 106.505 C 366.206 106.208,366.192 106.214,366.463 106.561 M36.041 202.162 L 36.042 297.665 37.263 298.376 C 39.251 299.531,39.829 299.835,39.829 299.724 C 39.829 299.608,37.899 298.428,36.836 297.894 L 36.164 297.557 36.102 202.108 L 36.041 106.659 36.041 202.162 M164.025 112.889 C 164.025 113.494,164.073 113.742,164.131 113.439 C 164.189 113.137,164.189 112.642,164.131 112.340 C 164.073 112.037,164.025 112.285,164.025 112.889 M343.722 119.492 C 343.880 119.696,344.054 120.356,344.107 120.958 L 344.203 122.053 344.246 120.922 C 344.277 120.099,344.172 119.700,343.861 119.456 C 343.487 119.163,343.470 119.167,343.722 119.492 M55.564 128.894 C 55.564 130.776,55.602 131.513,55.649 130.533 C 55.695 129.553,55.695 128.013,55.648 127.112 C 55.601 126.211,55.563 127.013,55.564 128.894 M227.920 194.919 C 228.224 194.978,228.664 194.976,228.897 194.914 C 229.131 194.853,228.882 194.805,228.345 194.808 C 227.807 194.811,227.616 194.861,227.920 194.919 M252.958 266.097 C 252.958 266.567,253.009 266.759,253.070 266.524 C 253.132 266.289,253.132 265.904,253.070 265.669 C 253.009 265.434,252.958 265.626,252.958 266.097 M253.447 269.273 C 253.447 269.743,253.497 269.936,253.559 269.701 C 253.620 269.465,253.620 269.081,253.559 268.845 C 253.497 268.610,253.447 268.803,253.447 269.273 M253.696 271.839 C 253.699 272.376,253.749 272.567,253.808 272.263 C 253.866 271.960,253.864 271.520,253.803 271.286 C 253.741 271.052,253.694 271.301,253.696 271.839 M253.936 274.160 C 253.936 274.630,253.986 274.823,254.047 274.588 C 254.109 274.352,254.109 273.968,254.047 273.732 C 253.986 273.497,253.936 273.690,253.936 274.160 M55.574 280.024 C 55.574 283.586,55.608 285.043,55.650 283.262 C 55.692 281.481,55.692 278.568,55.650 276.787 C 55.608 275.006,55.574 276.463,55.574 280.024 M254.209 279.536 C 254.209 280.678,254.251 281.145,254.302 280.574 C 254.354 280.003,254.354 279.068,254.302 278.497 C 254.251 277.926,254.209 278.393,254.209 279.536 M254.204 287.721 C 254.205 288.662,254.249 289.017,254.302 288.510 C 254.355 288.003,254.354 287.233,254.300 286.800 C 254.246 286.366,254.202 286.781,254.204 287.721 M229.989 292.242 C 229.989 292.712,230.040 292.905,230.101 292.670 C 230.163 292.434,230.163 292.049,230.101 291.814 C 230.040 291.579,229.989 291.772,229.989 292.242 M253.936 292.975 C 253.936 293.445,253.986 293.638,254.047 293.403 C 254.109 293.167,254.109 292.783,254.047 292.547 C 253.986 292.312,253.936 292.505,253.936 292.975 M253.701 295.174 C 253.701 295.779,253.749 296.026,253.807 295.724 C 253.865 295.422,253.865 294.927,253.807 294.624 C 253.749 294.322,253.701 294.569,253.701 295.174 M230.265 297.618 C 230.265 298.894,230.306 299.417,230.357 298.778 C 230.407 298.140,230.407 297.095,230.357 296.457 C 230.306 295.819,230.265 296.341,230.265 297.618 M253.447 297.862 C 253.447 298.332,253.497 298.525,253.559 298.290 C 253.620 298.054,253.620 297.670,253.559 297.434 C 253.497 297.199,253.447 297.392,253.447 297.862 M252.963 300.916 C 252.966 301.454,253.016 301.645,253.074 301.341 C 253.133 301.037,253.131 300.597,253.070 300.364 C 253.008 300.130,252.961 300.379,252.963 300.916 M230.257 302.871 C 230.258 303.812,230.303 304.167,230.355 303.660 C 230.408 303.153,230.407 302.383,230.354 301.949 C 230.300 301.516,230.256 301.930,230.257 302.871 M46.426 303.592 C 46.426 303.659,46.756 303.884,47.159 304.093 C 47.563 304.301,47.892 304.417,47.892 304.350 C 47.892 304.283,47.563 304.057,47.159 303.849 C 46.756 303.640,46.426 303.524,46.426 303.592 M355.956 303.866 C 355.043 304.362,355.098 304.568,356.017 304.093 C 356.420 303.884,356.750 303.662,356.750 303.598 C 356.750 303.441,356.724 303.450,355.956 303.866 M353.024 305.577 C 352.110 306.072,352.166 306.279,353.085 305.803 C 353.488 305.595,353.818 305.372,353.818 305.308 C 353.818 305.151,353.792 305.160,353.024 305.577 M351.008 306.787 C 350.470 307.118,350.128 307.390,350.246 307.390 C 350.496 307.392,352.108 306.424,352.108 306.272 C 352.108 306.117,352.059 306.140,351.008 306.787 M348.931 307.980 C 348.461 308.288,347.306 308.960,346.365 309.472 C 344.432 310.526,342.853 311.546,343.155 311.546 C 343.267 311.546,343.650 311.343,344.006 311.094 C 344.363 310.846,345.425 310.225,346.365 309.714 C 348.430 308.592,349.908 307.673,349.908 307.511 C 349.908 307.344,349.887 307.354,348.931 307.980 M335.736 315.660 C 335.131 316.037,334.142 316.610,333.537 316.935 C 332.207 317.648,331.180 318.387,331.519 318.387 C 331.655 318.387,331.904 318.222,332.071 318.021 C 332.238 317.819,332.468 317.654,332.582 317.654 C 332.842 317.654,336.958 315.232,336.958 315.079 C 336.958 314.906,336.912 314.928,335.736 315.660 M67.196 315.530 C 67.196 315.587,68.103 316.158,69.212 316.798 C 70.321 317.439,71.695 318.234,72.266 318.565 C 72.838 318.896,73.305 319.112,73.305 319.046 C 73.305 318.979,72.013 318.181,70.434 317.273 C 66.985 315.288,67.196 315.402,67.196 315.530 M200.423 316.921 C 200.423 317.392,200.473 317.584,200.535 317.349 C 200.596 317.114,200.596 316.729,200.535 316.494 C 200.473 316.258,200.423 316.451,200.423 316.921 M327.550 320.478 C 326.744 320.946,325.919 321.432,325.718 321.558 C 325.516 321.684,324.499 322.297,323.458 322.921 C 322.416 323.544,321.564 324.109,321.564 324.176 C 321.564 324.312,323.367 323.298,324.863 322.320 C 325.400 321.968,326.363 321.407,327.002 321.073 C 328.104 320.496,329.402 319.616,329.139 319.624 C 329.071 319.626,328.357 320.010,327.550 320.478 M74.895 320.101 C 74.977 320.234,75.158 320.342,75.297 320.342 C 75.437 320.342,75.843 320.544,76.199 320.790 C 77.180 321.467,79.658 322.838,79.658 322.703 C 79.658 322.572,75.888 320.327,75.186 320.040 C 74.918 319.930,74.804 319.954,74.895 320.101 M200.423 320.586 C 200.423 321.057,200.473 321.249,200.535 321.014 C 200.596 320.779,200.596 320.394,200.535 320.159 C 200.473 319.924,200.423 320.116,200.423 320.586 M83.909 325.189 C 84.142 325.566,90.654 329.298,90.654 329.055 C 90.654 328.985,89.801 328.461,88.760 327.888 C 87.718 327.316,86.170 326.425,85.318 325.907 C 84.467 325.389,83.833 325.066,83.909 325.189 M315.211 327.715 C 312.258 329.429,311.584 329.872,311.925 329.872 C 312.060 329.872,312.387 329.720,312.652 329.535 C 313.137 329.195,314.160 328.603,316.188 327.487 C 317.176 326.944,318.183 326.191,317.890 326.216 C 317.827 326.221,316.622 326.896,315.211 327.715 M320.525 329.523 C 319.612 330.018,319.667 330.225,320.586 329.750 C 320.990 329.541,321.319 329.318,321.319 329.255 C 321.319 329.097,321.293 329.106,320.525 329.523 M96.762 332.641 C 96.762 332.790,99.146 334.270,99.386 334.270 C 99.579 334.270,99.049 333.899,97.679 333.072 C 97.175 332.768,96.762 332.574,96.762 332.641 M135.614 332.669 C 135.614 332.736,135.944 332.962,136.347 333.170 C 136.750 333.379,137.080 333.495,137.080 333.427 C 137.080 333.360,136.750 333.135,136.347 332.926 C 135.944 332.718,135.614 332.602,135.614 332.669 M303.726 334.351 C 302.046 335.333,298.505 337.388,295.856 338.919 C 293.207 340.449,291.076 341.738,291.121 341.782 C 291.165 341.827,293.058 340.780,295.326 339.456 C 297.594 338.132,300.440 336.513,301.649 335.859 C 304.803 334.154,307.357 332.533,306.842 332.563 C 306.808 332.565,305.406 333.370,303.726 334.351 M99.695 334.380 C 99.695 334.447,100.024 334.672,100.428 334.881 C 100.831 335.089,101.161 335.205,101.161 335.138 C 101.161 335.071,100.831 334.845,100.428 334.637 C 100.024 334.428,99.695 334.312,99.695 334.380 M257.422 336.714 C 257.019 336.981,256.799 337.197,256.933 337.195 C 257.178 337.191,258.507 336.239,258.277 336.232 C 258.210 336.230,257.825 336.446,257.422 336.714 M106.536 338.263 C 106.536 338.325,107.828 339.115,109.407 340.020 C 110.987 340.925,112.689 341.925,113.190 342.243 C 114.158 342.859,114.795 343.053,113.982 342.485 C 113.597 342.217,111.308 340.883,106.720 338.256 C 106.619 338.198,106.536 338.201,106.536 338.263 M114.600 342.920 C 114.600 343.038,118.707 345.510,118.904 345.510 C 118.961 345.510,119.443 345.785,119.976 346.121 C 120.508 346.457,121.025 346.732,121.125 346.732 C 121.391 346.732,120.539 346.177,118.876 345.269 C 118.070 344.828,117.300 344.392,117.166 344.298 C 116.509 343.841,114.600 342.816,114.600 342.920 M153.716 342.901 C 153.772 342.945,154.203 343.229,154.673 343.532 L 155.528 344.084 154.795 343.455 C 154.392 343.108,153.962 342.824,153.838 342.823 C 153.715 342.823,153.660 342.858,153.716 342.901 M287.736 343.631 C 287.475 343.791,286.683 344.279,285.976 344.716 C 285.269 345.153,284.638 345.510,284.574 345.510 C 284.373 345.510,281.491 347.272,281.491 347.394 C 281.491 347.459,281.958 347.238,282.529 346.905 C 283.100 346.571,284.117 345.995,284.789 345.625 C 285.461 345.254,286.303 344.747,286.660 344.498 C 287.016 344.248,287.415 344.044,287.546 344.044 C 287.677 344.044,287.921 343.879,288.088 343.677 C 288.446 343.246,288.378 343.237,287.736 343.631 M243.555 344.672 C 242.642 345.168,242.697 345.374,243.616 344.899 C 244.020 344.691,244.349 344.468,244.349 344.404 C 244.349 344.247,244.323 344.256,243.555 344.672 M127.272 350.383 C 127.589 350.659,127.965 350.886,128.107 350.886 C 128.407 350.886,128.393 350.874,127.428 350.309 L 126.695 349.879 127.272 350.383 M276.475 350.245 C 276.210 350.431,275.388 350.911,274.649 351.314 C 270.172 353.750,268.527 354.674,265.186 356.625 C 263.140 357.821,261.503 358.835,261.547 358.880 C 261.591 358.924,263.376 357.937,265.512 356.687 C 267.648 355.437,270.886 353.609,272.709 352.625 C 274.531 351.641,276.290 350.630,276.618 350.378 C 277.307 349.848,277.193 349.743,276.475 350.245 M136.591 355.606 C 136.591 355.675,137.828 356.440,139.340 357.305 C 142.672 359.211,143.189 359.486,143.189 359.350 C 143.189 359.292,142.062 358.608,140.684 357.829 C 139.307 357.050,137.822 356.203,137.385 355.947 C 136.949 355.690,136.591 355.537,136.591 355.606 M255.762 362.100 C 254.178 363.022,252.803 363.862,252.708 363.967 C 252.475 364.226,252.595 364.161,255.895 362.263 C 258.330 360.862,259.044 360.394,258.705 360.420 C 258.671 360.423,257.347 361.179,255.762 362.100 M145.877 361.031 C 145.877 361.076,146.218 361.283,146.634 361.491 C 147.207 361.776,147.324 361.787,147.115 361.535 C 146.865 361.234,145.877 360.832,145.877 361.031 M148.809 362.724 C 148.809 362.791,149.139 363.017,149.542 363.225 C 149.945 363.434,150.275 363.550,150.275 363.482 C 150.275 363.415,149.945 363.190,149.542 362.981 C 149.139 362.773,148.809 362.657,148.809 362.724 M205.925 366.420 C 205.012 366.915,205.068 367.122,205.987 366.646 C 206.390 366.438,206.720 366.215,206.720 366.151 C 206.720 365.994,206.693 366.003,205.925 366.420 M156.119 366.938 C 156.902 367.524,159.560 369.026,159.560 368.883 C 159.560 368.777,158.382 368.066,156.384 366.967 C 155.653 366.564,155.614 366.560,156.119 366.938 M244.105 368.755 C 242.694 369.577,241.429 370.364,241.295 370.504 C 241.050 370.761,241.391 370.576,244.899 368.551 C 246.503 367.626,247.040 367.247,246.732 367.260 C 246.698 367.261,245.516 367.934,244.105 368.755 M236.346 373.227 C 234.023 374.586,233.735 374.930,235.919 373.736 C 237.865 372.673,238.702 372.134,238.356 372.167 C 238.225 372.180,237.321 372.657,236.346 373.227 M233.293 374.972 C 232.379 375.467,232.435 375.674,233.354 375.199 C 233.757 374.990,234.087 374.767,234.087 374.704 C 234.087 374.546,234.060 374.555,233.293 374.972 M228.346 377.840 C 228.077 378.000,227.583 378.307,227.246 378.523 C 226.909 378.739,226.139 379.194,225.535 379.534 C 222.702 381.125,222.114 381.480,222.114 381.593 C 222.114 381.661,222.636 381.419,223.274 381.056 C 223.913 380.693,224.930 380.118,225.535 379.778 C 226.139 379.438,226.926 378.956,227.283 378.707 C 227.639 378.457,228.038 378.253,228.169 378.253 C 228.300 378.253,228.544 378.088,228.711 377.886 C 229.069 377.455,229.004 377.447,228.346 377.840 M176.420 378.607 C 176.420 378.674,176.750 378.900,177.153 379.108 C 177.557 379.317,177.886 379.432,177.886 379.365 C 177.886 379.298,177.557 379.072,177.153 378.864 C 176.750 378.655,176.420 378.540,176.420 378.607 M178.131 379.555 C 178.131 379.637,180.145 380.869,183.690 382.957 C 184.126 383.214,184.484 383.365,184.484 383.292 C 184.484 383.220,183.962 382.864,183.323 382.501 C 182.685 382.138,181.503 381.436,180.696 380.941 C 178.934 379.858,178.131 379.424,178.131 379.555 M184.728 383.471 C 184.728 383.535,185.470 383.999,186.378 384.503 C 187.285 385.008,188.302 385.580,188.638 385.775 L 189.249 386.130 188.696 385.673 C 188.060 385.147,184.728 383.298,184.728 383.471 M190.593 386.915 C 190.593 386.982,190.922 387.208,191.326 387.416 C 191.729 387.624,192.059 387.740,192.059 387.673 C 192.059 387.606,191.729 387.380,191.326 387.172 C 190.922 386.963,190.593 386.848,190.593 386.915 M193.403 388.464 C 193.758 388.828,200.410 392.708,200.508 392.609 C 200.554 392.563,199.472 391.871,198.104 391.070 C 194.091 388.724,193.143 388.198,193.403 388.464 M206.739 390.816 C 206.434 391.141,205.893 391.478,205.536 391.566 C 204.640 391.787,202.043 392.962,202.170 393.089 C 202.227 393.146,202.697 392.977,203.214 392.714 C 203.731 392.451,204.616 392.097,205.180 391.929 C 205.998 391.684,207.915 390.226,207.419 390.226 C 207.350 390.226,207.044 390.492,206.739 390.816 " stroke="none" fill="#9e9e9e" fill-rule="evenodd"></path><path id="path3" d="M182.628 93.097 C 182.628 95.315,182.666 96.222,182.711 95.113 C 182.756 94.004,182.756 92.190,182.711 91.081 C 182.666 89.973,182.628 90.880,182.628 93.097 M182.840 98.717 C 182.840 99.322,182.888 99.569,182.946 99.267 C 183.004 98.965,183.004 98.470,182.946 98.167 C 182.888 97.865,182.840 98.112,182.840 98.717 M55.557 123.274 C 55.557 124.618,55.598 125.137,55.648 124.427 C 55.697 123.717,55.697 122.617,55.647 121.983 C 55.596 121.349,55.556 121.930,55.557 123.274 M55.588 202.932 C 55.588 241.906,55.616 257.813,55.651 238.282 C 55.685 218.751,55.685 186.863,55.651 167.421 C 55.616 147.978,55.588 163.958,55.588 202.932 M344.369 284.545 C 344.370 285.486,344.414 285.841,344.467 285.334 C 344.520 284.827,344.519 284.057,344.465 283.623 C 344.411 283.189,344.367 283.604,344.369 284.545 M181.002 300.722 C 181.304 300.780,181.799 300.780,182.101 300.722 C 182.404 300.664,182.156 300.616,181.552 300.616 C 180.947 300.616,180.699 300.664,181.002 300.722 M200.436 318.754 C 200.438 319.426,200.486 319.672,200.542 319.300 C 200.598 318.929,200.597 318.379,200.539 318.078 C 200.481 317.778,200.435 318.082,200.436 318.754 " stroke="none" fill="#7c7c7c" fill-rule="evenodd"></path><path id="path4" d="M199.328 12.357 C 198.415 12.853,198.470 13.059,199.389 12.584 C 199.792 12.376,200.122 12.153,200.122 12.089 C 200.122 11.932,200.096 11.941,199.328 12.357 M196.089 14.247 C 194.880 14.961,192.764 16.182,191.387 16.961 C 190.009 17.740,188.882 18.425,188.882 18.483 C 188.882 18.610,189.481 18.302,191.570 17.103 C 197.463 13.718,198.717 12.951,198.349 12.951 C 198.315 12.951,197.297 13.534,196.089 14.247 M213.073 18.160 C 213.073 18.279,216.109 20.066,216.616 20.245 C 217.079 20.409,215.879 19.612,214.478 18.825 C 213.705 18.390,213.073 18.091,213.073 18.160 M187.353 19.283 C 186.349 19.926,186.210 20.153,187.095 19.703 C 187.523 19.485,187.942 19.196,188.026 19.061 C 188.222 18.744,188.163 18.763,187.353 19.283 M183.690 21.398 C 182.776 21.894,182.832 22.100,183.751 21.625 C 184.154 21.416,184.484 21.194,184.484 21.130 C 184.484 20.973,184.458 20.982,183.690 21.398 M221.625 23.078 C 221.625 23.146,221.955 23.371,222.358 23.580 C 222.761 23.788,223.091 23.904,223.091 23.837 C 223.091 23.769,222.761 23.544,222.358 23.335 C 221.955 23.127,221.625 23.011,221.625 23.078 M225.779 25.522 C 225.779 25.589,226.109 25.815,226.512 26.023 C 226.915 26.232,227.245 26.347,227.245 26.280 C 227.245 26.213,226.915 25.987,226.512 25.779 C 226.109 25.570,225.779 25.455,225.779 25.522 M169.029 29.827 C 168.525 30.093,168.112 30.366,168.112 30.432 C 168.112 30.499,168.552 30.329,169.090 30.055 C 169.627 29.781,170.067 29.504,170.067 29.439 C 170.067 29.279,170.065 29.280,169.029 29.827 M234.934 30.775 C 235.098 31.040,237.306 32.293,237.416 32.183 C 237.459 32.140,236.888 31.757,236.147 31.331 C 235.406 30.905,234.860 30.655,234.934 30.775 M154.495 37.922 C 152.851 38.887,151.544 39.713,151.589 39.758 C 151.673 39.842,157.054 36.744,157.471 36.371 C 157.977 35.918,157.361 36.240,154.495 37.922 M148.990 41.030 C 148.013 41.656,147.833 41.910,148.687 41.457 C 149.710 40.914,150.196 40.567,149.908 40.584 C 149.774 40.591,149.361 40.792,148.990 41.030 M191.875 41.164 C 191.170 41.493,190.593 41.815,190.593 41.881 C 190.593 41.997,193.297 40.864,193.504 40.662 C 193.775 40.396,193.031 40.626,191.875 41.164 M254.948 42.330 C 256.387 43.301,257.094 43.739,257.222 43.739 C 257.497 43.739,256.196 42.828,255.345 42.426 C 254.875 42.203,254.696 42.160,254.948 42.330 M144.594 43.634 C 143.680 44.130,143.736 44.336,144.655 43.861 C 145.058 43.652,145.388 43.429,145.388 43.366 C 145.388 43.209,145.362 43.217,144.594 43.634 M257.544 43.848 C 257.544 43.915,257.874 44.141,258.277 44.349 C 258.681 44.558,259.010 44.674,259.010 44.606 C 259.010 44.539,258.681 44.314,258.277 44.105 C 257.874 43.897,257.544 43.781,257.544 43.848 M213.561 44.337 C 213.561 44.404,213.891 44.630,214.294 44.838 C 214.698 45.047,215.027 45.162,215.027 45.095 C 215.027 45.028,214.698 44.802,214.294 44.594 C 213.891 44.385,213.561 44.270,213.561 44.337 M259.377 44.893 C 259.511 45.020,260.171 45.424,260.843 45.791 C 261.515 46.157,261.845 46.277,261.576 46.056 C 261.029 45.607,258.994 44.531,259.377 44.893 M215.761 45.559 C 215.761 45.626,216.090 45.851,216.494 46.060 C 216.897 46.268,217.227 46.384,217.227 46.317 C 217.227 46.250,216.897 46.024,216.494 45.816 C 216.090 45.607,215.761 45.491,215.761 45.559 M217.471 46.509 C 217.471 46.674,219.227 47.684,219.332 47.579 C 219.380 47.531,218.982 47.244,218.446 46.943 C 217.910 46.642,217.471 46.446,217.471 46.509 M262.187 46.536 C 262.187 46.603,262.517 46.829,262.920 47.037 C 263.323 47.246,263.653 47.361,263.653 47.294 C 263.653 47.227,263.323 47.001,262.920 46.793 C 262.517 46.584,262.187 46.469,262.187 46.536 M265.119 48.246 C 265.119 48.314,265.449 48.539,265.852 48.748 C 266.255 48.956,266.585 49.072,266.585 49.005 C 266.585 48.937,266.255 48.712,265.852 48.503 C 265.449 48.295,265.119 48.179,265.119 48.246 M176.298 49.847 C 175.895 50.114,175.675 50.331,175.809 50.329 C 176.054 50.325,177.383 49.373,177.153 49.366 C 177.086 49.364,176.701 49.580,176.298 49.847 M171.717 52.431 C 170.803 52.926,170.859 53.133,171.778 52.657 C 172.181 52.449,172.511 52.226,172.511 52.162 C 172.511 52.005,172.484 52.014,171.717 52.431 M228.955 53.133 C 228.955 53.201,229.285 53.426,229.688 53.635 C 230.092 53.843,230.422 53.959,230.422 53.892 C 230.422 53.824,230.092 53.599,229.688 53.390 C 229.285 53.182,228.955 53.066,228.955 53.133 M167.074 55.118 C 166.160 55.614,166.216 55.820,167.135 55.345 C 167.538 55.137,167.868 54.914,167.868 54.850 C 167.868 54.693,167.842 54.702,167.074 55.118 M233.842 55.968 C 234.690 56.543,235.173 56.711,234.575 56.222 C 234.239 55.947,233.855 55.722,233.720 55.721 C 233.586 55.720,233.641 55.831,233.842 55.968 M119.181 58.295 C 118.268 58.790,118.324 58.997,119.243 58.522 C 119.646 58.313,119.976 58.090,119.976 58.027 C 119.976 57.869,119.949 57.878,119.181 58.295 M113.700 61.524 C 112.600 62.162,111.610 62.782,111.501 62.902 C 111.260 63.166,111.276 63.157,113.806 61.710 C 114.914 61.075,115.822 60.511,115.822 60.455 C 115.822 60.295,115.803 60.305,113.700 61.524 M294.441 65.073 C 294.441 65.166,297.975 67.293,299.878 68.345 C 299.979 68.401,300.061 68.395,300.061 68.331 C 300.061 68.268,299.209 67.725,298.167 67.124 C 297.126 66.523,295.861 65.787,295.357 65.490 C 294.853 65.192,294.441 65.004,294.441 65.073 M105.742 66.114 C 104.829 66.610,104.884 66.816,105.803 66.341 C 106.206 66.132,106.536 65.910,106.536 65.846 C 106.536 65.689,106.510 65.698,105.742 66.114 M145.327 67.580 C 144.413 68.076,144.469 68.282,145.388 67.807 C 145.791 67.598,146.121 67.376,146.121 67.312 C 146.121 67.155,146.095 67.164,145.327 67.580 M300.305 68.500 C 300.305 68.666,302.061 69.676,302.166 69.571 C 302.215 69.522,301.816 69.236,301.280 68.934 C 300.744 68.633,300.305 68.438,300.305 68.500 M302.628 69.885 C 302.791 70.150,304.215 70.943,304.215 70.770 C 304.215 70.712,303.824 70.434,303.345 70.152 C 302.867 69.870,302.544 69.750,302.628 69.885 M261.454 71.817 C 261.790 72.092,262.175 72.317,262.309 72.318 C 262.571 72.320,262.129 71.982,261.332 71.570 C 261.007 71.402,261.048 71.485,261.454 71.817 M137.263 72.223 C 136.350 72.718,136.405 72.925,137.324 72.450 C 137.728 72.241,138.057 72.018,138.057 71.955 C 138.057 71.797,138.031 71.806,137.263 72.223 M306.659 72.193 C 306.659 72.260,306.988 72.485,307.392 72.694 C 307.795 72.902,308.125 73.018,308.125 72.951 C 308.125 72.884,307.795 72.658,307.392 72.450 C 306.988 72.241,306.659 72.126,306.659 72.193 M85.644 77.734 C 84.032 78.681,82.602 79.574,82.468 79.718 C 82.334 79.863,82.608 79.757,83.079 79.484 C 87.463 76.937,88.699 76.193,88.699 76.101 C 88.699 75.937,88.772 75.898,85.644 77.734 M205.310 76.970 C 205.310 77.440,205.360 77.633,205.422 77.398 C 205.483 77.162,205.483 76.778,205.422 76.542 C 205.360 76.307,205.310 76.500,205.310 76.970 M315.822 77.460 C 315.986 77.725,317.410 78.518,317.410 78.344 C 317.410 78.287,317.018 78.009,316.540 77.727 C 316.062 77.445,315.739 77.325,315.822 77.460 M323.030 81.717 C 323.030 81.766,323.580 82.093,324.252 82.445 C 325.616 83.158,325.910 83.139,324.679 82.417 C 323.813 81.909,323.030 81.577,323.030 81.717 M77.398 82.486 C 76.484 82.981,76.540 83.187,77.459 82.712 C 77.862 82.504,78.192 82.281,78.192 82.217 C 78.192 82.060,78.166 82.069,77.398 82.486 M116.494 84.196 C 115.580 84.692,115.636 84.898,116.555 84.423 C 116.958 84.214,117.288 83.991,117.288 83.928 C 117.288 83.771,117.261 83.779,116.494 84.196 M332.071 86.854 C 332.071 86.921,332.401 87.146,332.804 87.355 C 333.207 87.563,333.537 87.679,333.537 87.612 C 333.537 87.545,333.207 87.319,332.804 87.111 C 332.401 86.902,332.071 86.786,332.071 86.854 M333.781 87.831 C 333.781 87.898,334.111 88.124,334.514 88.332 C 334.918 88.541,335.247 88.656,335.247 88.589 C 335.247 88.522,334.918 88.296,334.514 88.088 C 334.111 87.879,333.781 87.764,333.781 87.831 M65.486 89.454 C 65.080 89.786,65.039 89.869,65.363 89.701 C 66.160 89.289,66.602 88.951,66.341 88.952 C 66.206 88.953,65.822 89.179,65.486 89.454 M338.546 90.587 C 338.681 90.715,339.230 91.067,339.768 91.369 C 340.305 91.670,340.525 91.735,340.257 91.511 C 339.711 91.058,338.163 90.221,338.546 90.587 M104.459 91.142 C 104.056 91.409,103.836 91.626,103.971 91.624 C 104.216 91.620,105.544 90.668,105.315 90.661 C 105.247 90.659,104.863 90.875,104.459 91.142 M343.555 93.426 C 343.555 93.549,346.597 95.418,348.137 96.241 C 349.569 97.007,348.456 96.184,346.671 95.157 C 345.562 94.520,344.407 93.838,344.105 93.642 C 343.803 93.446,343.555 93.349,343.555 93.426 M163.776 100.061 C 163.778 100.599,163.828 100.790,163.887 100.486 C 163.945 100.182,163.943 99.742,163.882 99.508 C 163.821 99.275,163.773 99.524,163.776 100.061 M46.671 100.276 C 45.932 100.723,44.255 101.720,42.944 102.492 C 41.634 103.264,40.562 103.951,40.562 104.019 C 40.562 104.086,40.974 103.894,41.478 103.593 C 41.982 103.291,43.604 102.339,45.082 101.477 C 47.494 100.070,48.446 99.438,48.125 99.457 C 48.064 99.460,47.410 99.829,46.671 100.276 M311.301 100.510 C 311.301 100.675,313.057 101.686,313.162 101.581 C 313.211 101.532,312.812 101.245,312.276 100.944 C 311.740 100.643,311.301 100.447,311.301 100.510 M38.302 105.210 C 37.388 105.706,37.444 105.912,38.363 105.437 C 38.766 105.228,39.096 105.006,39.096 104.942 C 39.096 104.785,39.070 104.793,38.302 105.210 M363.348 104.908 C 363.348 105.074,365.103 106.084,365.208 105.979 C 365.257 105.930,364.858 105.644,364.322 105.342 C 363.786 105.041,363.348 104.846,363.348 104.908 M365.974 106.413 L 366.524 106.840 366.524 202.180 C 366.524 278.106,366.462 297.590,366.219 297.862 C 365.959 298.154,365.977 298.157,366.341 297.881 C 366.748 297.573,366.766 292.795,366.708 202.138 L 366.646 106.718 366.035 106.352 C 365.425 105.987,365.425 105.987,365.974 106.413 M344.409 202.077 C 344.409 246.628,344.437 264.853,344.472 242.578 C 344.506 220.302,344.506 183.852,344.472 161.576 C 344.437 139.301,344.409 157.526,344.409 202.077 M229.386 195.164 C 229.690 195.222,230.130 195.220,230.363 195.159 C 230.597 195.098,230.348 195.050,229.811 195.052 C 229.273 195.055,229.082 195.105,229.386 195.164 M194.808 208.110 C 195.043 208.171,195.428 208.171,195.663 208.110 C 195.898 208.048,195.706 207.998,195.235 207.998 C 194.765 207.998,194.572 208.048,194.808 208.110 M253.936 275.870 C 253.936 276.341,253.986 276.533,254.047 276.298 C 254.109 276.063,254.109 275.678,254.047 275.443 C 253.986 275.208,253.936 275.400,253.936 275.870 M229.750 287.966 C 229.753 288.503,229.803 288.695,229.861 288.391 C 229.920 288.087,229.918 287.647,229.856 287.413 C 229.795 287.180,229.747 287.428,229.750 287.966 M229.994 290.409 C 229.997 290.947,230.047 291.138,230.106 290.834 C 230.164 290.530,230.162 290.090,230.101 289.857 C 230.040 289.623,229.992 289.872,229.994 290.409 M230.247 293.830 C 230.249 294.502,230.296 294.748,230.352 294.377 C 230.409 294.005,230.407 293.455,230.349 293.155 C 230.291 292.854,230.245 293.158,230.247 293.830 M37.752 298.342 C 38.613 298.955,40.318 299.872,40.318 299.723 C 40.318 299.614,37.685 298.044,37.263 297.902 C 37.129 297.857,37.349 298.054,37.752 298.342 M40.806 300.073 C 41.654 300.648,42.137 300.816,41.539 300.327 C 41.203 300.052,40.819 299.827,40.684 299.826 C 40.550 299.825,40.605 299.936,40.806 300.073 M230.239 305.559 C 230.241 306.097,230.292 306.288,230.350 305.984 C 230.408 305.680,230.406 305.240,230.345 305.006 C 230.284 304.773,230.236 305.021,230.239 305.559 M353.024 305.332 C 352.110 305.828,352.166 306.034,353.085 305.559 C 353.488 305.350,353.818 305.128,353.818 305.064 C 353.818 304.907,353.792 304.916,353.024 305.332 M350.092 307.043 C 349.178 307.538,349.234 307.745,350.153 307.269 C 350.556 307.061,350.886 306.838,350.886 306.774 C 350.886 306.617,350.860 306.626,350.092 307.043 M348.135 308.216 C 346.961 308.938,346.633 309.278,347.587 308.785 C 348.353 308.389,349.386 307.652,349.175 307.651 C 349.108 307.651,348.640 307.905,348.135 308.216 M344.899 310.040 C 344.093 310.540,342.691 311.364,341.784 311.870 C 340.877 312.377,340.134 312.849,340.134 312.919 C 340.134 313.080,346.212 309.636,346.711 309.192 C 347.147 308.805,346.099 309.296,344.899 310.040 M67.685 315.565 C 67.685 315.632,68.015 315.857,68.418 316.066 C 68.821 316.274,69.151 316.390,69.151 316.323 C 69.151 316.256,68.821 316.030,68.418 315.822 C 68.015 315.613,67.685 315.498,67.685 315.565 M70.739 317.346 C 70.874 317.486,71.643 317.960,72.450 318.400 C 73.256 318.840,73.806 319.088,73.671 318.952 C 73.537 318.816,72.767 318.342,71.961 317.899 C 71.155 317.455,70.605 317.207,70.739 317.346 M331.296 317.983 C 329.344 319.300,329.222 319.412,330.483 318.728 C 331.781 318.023,333.014 317.150,332.654 317.189 C 332.535 317.202,331.924 317.560,331.296 317.983 M74.527 319.587 C 74.863 319.862,75.247 320.088,75.382 320.089 C 75.643 320.090,75.201 319.752,74.404 319.340 C 74.080 319.172,74.121 319.255,74.527 319.587 M76.481 320.672 C 76.481 320.729,77.443 321.324,78.619 321.994 C 79.795 322.664,81.170 323.457,81.674 323.756 C 82.178 324.055,82.590 324.244,82.590 324.176 C 82.590 324.108,81.463 323.397,80.086 322.597 C 77.134 320.882,76.481 320.533,76.481 320.672 M82.834 324.361 C 82.834 324.429,83.164 324.654,83.568 324.863 C 83.971 325.071,84.301 325.187,84.301 325.119 C 84.301 325.052,83.971 324.827,83.568 324.618 C 83.164 324.410,82.834 324.294,82.834 324.361 M311.215 329.734 C 309.487 330.725,307.948 331.664,307.794 331.820 C 307.640 331.977,309.081 331.209,310.996 330.114 C 313.927 328.437,314.801 327.878,314.417 327.924 C 314.383 327.928,312.942 328.742,311.215 329.734 M92.120 329.740 C 92.120 329.807,92.560 330.086,93.097 330.360 C 93.635 330.635,94.075 330.804,94.075 330.737 C 94.075 330.670,93.635 330.390,93.097 330.116 C 92.560 329.842,92.120 329.672,92.120 329.740 M306.292 332.565 C 305.889 332.817,304.762 333.477,303.787 334.031 C 302.813 334.584,302.016 335.094,302.016 335.163 C 302.016 335.324,305.186 333.580,305.700 333.136 C 305.913 332.954,306.187 332.800,306.311 332.796 C 306.435 332.792,306.750 332.627,307.011 332.430 C 307.684 331.920,307.167 332.018,306.292 332.565 M99.695 334.135 C 99.695 334.202,100.024 334.428,100.428 334.637 C 100.831 334.845,101.161 334.961,101.161 334.893 C 101.161 334.826,100.831 334.601,100.428 334.392 C 100.024 334.184,99.695 334.068,99.695 334.135 M300.000 336.241 C 299.496 336.507,299.084 336.780,299.084 336.846 C 299.084 336.913,299.524 336.743,300.061 336.469 C 300.599 336.195,301.038 335.918,301.038 335.853 C 301.038 335.693,301.037 335.694,300.000 336.241 M298.045 337.342 C 297.132 337.838,297.187 338.044,298.106 337.569 C 298.509 337.360,298.839 337.137,298.839 337.074 C 298.839 336.917,298.813 336.925,298.045 337.342 M169.823 338.256 C 169.823 338.298,170.180 338.655,170.617 339.050 L 171.411 339.768 170.693 338.974 C 170.024 338.233,169.823 338.067,169.823 338.256 M108.247 339.022 C 108.247 339.089,108.577 339.315,108.980 339.524 C 109.383 339.732,109.713 339.848,109.713 339.780 C 109.713 339.713,109.383 339.488,108.980 339.279 C 108.577 339.071,108.247 338.955,108.247 339.022 M291.436 341.235 C 290.656 341.705,289.963 342.089,289.896 342.089 C 289.698 342.089,285.644 344.565,285.644 344.686 C 285.644 344.813,287.544 343.742,288.817 342.898 C 289.285 342.588,289.744 342.334,289.838 342.334 C 290.052 342.334,292.975 340.599,292.975 340.472 C 292.975 340.315,292.898 340.353,291.436 341.235 M111.179 340.735 C 111.179 340.803,111.619 341.082,112.156 341.356 C 112.694 341.630,113.134 341.800,113.134 341.733 C 113.134 341.665,112.694 341.386,112.156 341.112 C 111.619 340.838,111.179 340.668,111.179 340.735 M115.068 342.991 C 115.852 343.578,118.509 345.080,118.509 344.937 C 118.509 344.831,117.331 344.120,115.333 343.020 C 114.602 342.618,114.564 342.614,115.068 342.991 M284.362 345.282 C 283.858 345.548,283.445 345.821,283.445 345.887 C 283.445 345.954,283.885 345.784,284.423 345.510 C 284.960 345.236,285.400 344.959,285.400 344.894 C 285.400 344.734,285.398 344.735,284.362 345.282 M119.731 345.691 C 121.369 346.742,123.641 348.007,123.641 347.868 C 123.641 347.742,119.336 345.206,118.884 345.065 C 118.745 345.021,119.126 345.303,119.731 345.691 M204.337 349.588 C 204.572 349.650,204.957 349.650,205.192 349.588 C 205.428 349.527,205.235 349.476,204.765 349.476 C 204.294 349.476,204.102 349.527,204.337 349.588 M275.076 350.781 C 274.163 351.277,274.218 351.483,275.137 351.008 C 275.541 350.799,275.870 350.577,275.870 350.513 C 275.870 350.356,275.844 350.365,275.076 350.781 M270.434 353.345 C 269.661 353.744,269.029 354.125,269.029 354.192 C 269.029 354.259,269.688 353.981,270.495 353.574 C 271.301 353.167,271.961 352.780,271.961 352.715 C 271.961 352.552,272.006 352.533,270.434 353.345 M264.551 356.739 C 260.819 358.927,259.140 360.002,260.721 359.191 C 261.863 358.605,268.417 354.752,268.650 354.529 C 269.107 354.092,268.607 354.361,264.551 356.739 M138.424 356.439 C 138.772 356.807,143.975 359.721,143.811 359.457 C 143.737 359.336,142.934 358.831,142.027 358.333 C 141.121 357.836,139.884 357.148,139.279 356.805 C 138.674 356.462,138.290 356.297,138.424 356.439 M147.281 361.547 C 147.923 362.081,150.275 363.428,150.275 363.263 C 150.275 363.201,149.753 362.846,149.114 362.475 C 148.476 362.104,147.679 361.641,147.343 361.446 L 146.732 361.090 147.281 361.547 M150.519 363.457 C 150.519 363.524,150.849 363.750,151.252 363.958 C 151.655 364.167,151.985 364.283,151.985 364.215 C 151.985 364.148,151.655 363.923,151.252 363.714 C 150.849 363.506,150.519 363.390,150.519 363.457 M152.230 364.435 C 152.230 364.502,152.560 364.727,152.963 364.936 C 153.366 365.144,153.696 365.260,153.696 365.193 C 153.696 365.126,153.366 364.900,152.963 364.692 C 152.560 364.483,152.230 364.367,152.230 364.435 M242.319 369.550 C 240.866 370.401,239.547 371.232,239.387 371.396 C 239.082 371.708,244.545 368.571,244.948 368.202 C 245.422 367.769,244.896 368.039,242.319 369.550 M235.247 373.626 C 233.803 374.437,232.621 375.160,232.621 375.233 C 232.621 375.307,233.088 375.098,233.659 374.769 C 234.230 374.440,235.440 373.760,236.347 373.259 C 237.254 372.757,237.996 372.301,237.996 372.245 C 237.996 372.084,238.001 372.082,235.247 373.626 M229.139 377.171 C 228.225 377.666,228.281 377.873,229.200 377.398 C 229.603 377.189,229.933 376.966,229.933 376.903 C 229.933 376.745,229.907 376.754,229.139 377.171 M178.131 379.315 C 178.131 379.377,178.653 379.732,179.291 380.103 C 179.930 380.474,180.727 380.937,181.063 381.132 L 181.674 381.487 181.124 381.031 C 180.482 380.497,178.131 379.150,178.131 379.315 M181.840 381.532 C 181.931 381.635,182.755 382.156,183.672 382.690 C 184.589 383.223,185.174 383.499,184.973 383.303 C 184.581 382.922,181.560 381.215,181.840 381.532 M188.271 385.361 C 191.786 387.436,192.059 387.586,192.059 387.448 C 192.059 387.298,185.801 383.628,185.547 383.630 C 185.433 383.630,186.659 384.409,188.271 385.361 M215.577 384.989 C 215.006 385.331,214.539 385.669,214.539 385.739 C 214.539 385.871,216.187 384.935,216.604 384.567 C 217.024 384.196,216.632 384.356,215.577 384.989 M194.502 388.870 C 194.502 388.937,194.832 389.162,195.235 389.371 C 195.638 389.579,195.968 389.695,195.968 389.628 C 195.968 389.561,195.638 389.335,195.235 389.126 C 194.832 388.918,194.502 388.802,194.502 388.870 " stroke="none" fill="#747474" fill-rule="evenodd"></path></g></svg>